<?xml version="1.0" encoding="UTF-8"?>
<svg preserveAspectRatio="none" width="321px" height="538px" viewBox="0 0 321 538" version="1.1" xmlns="http://www.w3.org/2000/svg" xmlns:xlink="http://www.w3.org/1999/xlink">
    <!-- Generator: Sketch 52.5 (67469) - http://www.bohemiancoding.com/sketch -->
    <title>Group 36</title>
    <desc>Created with Sketch.</desc>
    <defs>
        <rect id="path-1" x="0" y="0" width="321" height="538"></rect>
    </defs>
    <g id="001_home_v1" stroke="none" stroke-width="1" fill="none" fill-rule="evenodd">
        <g id="001a_vd_home_v3-copy" transform="translate(0.000000, -2995.000000)">
            <g id="Group-36" transform="translate(0.000000, 2995.000000)">
                <mask id="mask-2" fill="white">
                    <use xlink:href="#path-1"></use>
                </mask>
                <g id="Mask"></g>
                <path d="M195.187116,329.949418 L195.172742,329.966937 C195.172742,329.966937 164.31563,309 138.577147,309 C112.838664,309 82.3041613,329.966937 82.3041613,329.966937 L82.192366,329.842712 C66.4835229,340.709208 43.4680555,347.606876 17.7423495,347.606876 C-7.90350271,347.606876 -30.8502959,340.752208 -46.5591389,329.941455 L-46.5799009,329.966937 C-46.5799009,329.966937 -77.4370133,309 -103.172302,309 C-128.913979,309 -159.446884,329.966937 -159.446884,329.966937 L-159.552291,329.849083 C-175.262732,340.713985 -198.271811,347.606876 -223.989531,347.606876 C-249.640175,347.606876 -272.593356,340.747431 -288.302199,329.933492 L-288.32935,329.966937 C-288.32935,329.966937 -319.184865,309 -344.924945,309 C-370.663427,309 -401.196333,329.966937 -401.196333,329.966937 L-401.295352,329.855453 C-417.004195,340.715578 -440.01008,347.606876 -465.721412,347.606876 C-491.380041,347.606876 -514.336417,340.744245 -530.043663,329.925529 L-530.080395,329.966937 C-530.080395,329.966937 -560.937508,309 -586.67599,309 C-612.414473,309 -642.947379,329.966937 -642.947379,329.966937 L-643.038412,329.865009 C-658.747255,340.718763 -681.746752,347.606876 -707.451696,347.606876 C-733.115116,347.606876 -756.082671,340.742653 -771.789917,329.915973 L-771.831441,329.966937 C-771.831441,329.966937 -802.686956,309 -828.423842,309 C-854.165519,309 -884.700022,329.966937 -884.700022,329.966937 L-884.779875,329.874565 C-900.490316,340.723541 -923.485021,347.606876 -949.183577,347.606876 C-977.373572,347.606876 -1002.38059,339.363438 -1018,326.639939 L-1018,363.033063 C-1002.38059,375.754969 -977.373572,384 -949.183577,384 C-923.485021,384 -900.490316,377.115073 -884.779875,366.267689 L-884.700022,366.358469 C-884.700022,366.358469 -854.165519,345.391531 -828.423842,345.391531 C-802.686956,345.391531 -771.831441,366.358469 -771.831441,366.358469 L-771.789917,366.309097 C-756.082671,377.134184 -733.115116,384 -707.451696,384 C-681.746752,384 -658.747255,377.111887 -643.038412,366.258133 L-642.947379,366.358469 C-642.947379,366.358469 -612.414473,345.391531 -586.67599,345.391531 C-560.937508,345.391531 -530.080395,366.358469 -530.080395,366.358469 L-530.043663,366.31706 C-514.336417,377.135777 -491.380041,384 -465.721412,384 C-440.01008,384 -417.004195,377.107109 -401.295352,366.248577 L-401.196333,366.358469 C-401.196333,366.358469 -370.663427,345.391531 -344.924945,345.391531 C-319.184865,345.391531 -288.32935,366.358469 -288.32935,366.358469 L-288.302199,366.326616 C-272.593356,377.140555 -249.640175,384 -223.989531,384 C-198.271811,384 -175.262732,377.105517 -159.552291,366.240614 L-159.446884,366.358469 C-159.446884,366.358469 -128.913979,345.391531 -103.172302,345.391531 C-77.4370133,345.391531 -46.5799009,366.358469 -46.5799009,366.358469 L-46.5591389,366.334579 C-30.8502959,377.14374 -7.90350271,384 17.7423495,384 C43.4680555,384 66.4835229,377.102332 82.192366,366.234244 L82.3041613,366.358469 C82.3041613,366.358469 112.838664,345.391531 138.577147,345.391531 C164.31563,345.391531 195.172742,366.358469 195.172742,366.358469 L195.187116,366.34095 C210.88957,377.145333 233.837961,384 259.472633,384 C283.620428,384 305.422117,377.943239 321,368.212287 L321,331.819162 C305.422117,341.550115 283.620428,347.606876 259.472633,347.606876 C233.837961,347.606876 210.88957,340.753801 195.187116,329.949418" id="Fill-1-Copy-5" fill="#FDC12C" mask="url(#mask-2)"></path>
                <path d="M195.172742,97.9669371 C195.172742,97.9669371 164.31563,77 138.577147,77 C112.838664,77 82.3041613,97.9669371 82.3041613,97.9669371 L82.192366,97.8427121 C66.4835229,108.7108 43.4680555,115.608469 17.7423495,115.608469 C-7.90350271,115.608469 -30.8502959,108.752208 -46.5591389,97.941455 L-46.5799009,97.9669371 C-46.5799009,97.9669371 -77.4370133,77 -103.172302,77 C-128.913979,77 -159.446884,97.9669371 -159.446884,97.9669371 L-159.552291,97.8490826 C-175.262732,108.713985 -198.271811,115.608469 -223.989531,115.608469 C-249.640175,115.608469 -272.593356,108.749023 -288.302199,97.9334919 L-288.32935,97.9669371 C-288.32935,97.9669371 -319.184865,77 -344.924945,77 C-370.663427,77 -401.196333,97.9669371 -401.196333,97.9669371 L-401.295352,97.8554532 C-417.004195,108.715578 -440.01008,115.608469 -465.721412,115.608469 C-491.380041,115.608469 -514.336417,108.744245 -530.043663,97.9255288 L-530.080395,97.9669371 C-530.080395,97.9669371 -560.937508,77 -586.67599,77 C-612.414473,77 -642.947379,97.9669371 -642.947379,97.9669371 L-643.038412,97.8650089 C-658.747255,108.718763 -681.746752,115.608469 -707.451696,115.608469 C-733.115116,115.608469 -756.082671,108.742653 -771.789917,97.9175656 L-771.831441,97.9669371 C-771.831441,97.9669371 -802.686956,77 -828.423842,77 C-854.165519,77 -884.700022,97.9669371 -884.700022,97.9669371 L-884.779875,97.8761573 C-900.490316,108.723541 -923.485021,115.608469 -949.183577,115.608469 C-977.373572,115.608469 -1002.38059,107.363438 -1018,94.6399388 L-1018,131.033063 C-1002.38059,143.754969 -977.373572,152 -949.183577,152 C-923.485021,152 -900.490316,145.116665 -884.779875,134.267689 L-884.700022,134.358469 C-884.700022,134.358469 -854.165519,113.391531 -828.423842,113.391531 C-802.686956,113.391531 -771.831441,134.358469 -771.831441,134.358469 L-771.789917,134.309097 C-756.082671,145.134184 -733.115116,152 -707.451696,152 C-681.746752,152 -658.747255,145.111887 -643.038412,134.258133 L-642.947379,134.358469 C-642.947379,134.358469 -612.414473,113.391531 -586.67599,113.391531 C-560.937508,113.391531 -530.080395,134.358469 -530.080395,134.358469 L-530.043663,134.31706 C-514.336417,145.135777 -491.380041,152 -465.721412,152 C-440.01008,152 -417.004195,145.108702 -401.295352,134.248577 L-401.196333,134.358469 C-401.196333,134.358469 -370.663427,113.391531 -344.924945,113.391531 C-319.184865,113.391531 -288.32935,134.358469 -288.32935,134.358469 L-288.302199,134.326616 C-272.593356,145.140555 -249.640175,152 -223.989531,152 C-198.271811,152 -175.262732,145.105517 -159.552291,134.240614 L-159.446884,134.358469 C-159.446884,134.358469 -128.913979,113.391531 -103.172302,113.391531 C-77.4370133,113.391531 -46.5799009,134.358469 -46.5799009,134.358469 L-46.5591389,134.334579 C-30.8502959,145.145333 -7.90350271,152 17.7423495,152 C43.4680555,152 66.4835229,145.102332 82.192366,134.235836 L82.3041613,134.358469 C82.3041613,134.358469 112.838664,113.391531 138.577147,113.391531 C164.31563,113.391531 195.172742,134.358469 195.172742,134.358469 L195.187116,134.342542 C210.88957,145.146925 233.837961,152 259.472633,152 C283.620428,152 305.422117,145.943239 321,136.212287 L321,99.8191625 C305.422117,109.551707 283.620428,115.608469 259.472633,115.608469 C233.837961,115.608469 210.88957,108.753801 195.187116,97.9494182 L195.172742,97.9669371 Z" id="Fill-5-Copy-2" fill="#FDC12C" mask="url(#mask-2)"></path>
                <path d="M195.187116,483.949418 L195.172742,483.966937 C195.172742,483.966937 164.31563,463 138.577147,463 C112.838664,463 82.3041613,483.966937 82.3041613,483.966937 L82.192366,483.842712 C66.4835229,494.7108 43.4680555,501.608469 17.7423495,501.608469 C-7.90350271,501.608469 -30.8502959,494.752208 -46.5591389,483.941455 L-46.5799009,483.966937 C-46.5799009,483.966937 -77.4370133,463 -103.172302,463 C-128.913979,463 -159.446884,483.966937 -159.446884,483.966937 L-159.552291,483.849083 C-175.262732,494.713985 -198.271811,501.608469 -223.989531,501.608469 C-249.640175,501.608469 -272.593356,494.749023 -288.302199,483.935085 L-288.32935,483.966937 C-288.32935,483.966937 -319.184865,463 -344.924945,463 C-370.663427,463 -401.196333,483.966937 -401.196333,483.966937 L-401.295352,483.857046 C-417.004195,494.715578 -440.01008,501.608469 -465.721412,501.608469 C-491.380041,501.608469 -514.336417,494.744245 -530.043663,483.925529 L-530.080395,483.966937 C-530.080395,483.966937 -560.937508,463 -586.67599,463 C-612.414473,463 -642.947379,483.966937 -642.947379,483.966937 L-643.038412,483.866602 C-658.747255,494.720356 -681.746752,501.608469 -707.451696,501.608469 C-733.115116,501.608469 -756.082671,494.742653 -771.789917,483.917566 L-771.831441,483.966937 C-771.831441,483.966937 -802.686956,463 -828.423842,463 C-854.165519,463 -884.700022,483.966937 -884.700022,483.966937 L-884.779875,483.874565 C-900.490316,494.723541 -923.485021,501.608469 -949.183577,501.608469 C-977.373572,501.608469 -1002.38059,493.363438 -1018,480.641531 L-1018,517.033063 C-1002.38059,529.754969 -977.373572,538 -949.183577,538 C-923.485021,538 -900.490316,531.116665 -884.779875,520.267689 L-884.700022,520.358469 C-884.700022,520.358469 -854.165519,499.391531 -828.423842,499.391531 C-802.686956,499.391531 -771.831441,520.358469 -771.831441,520.358469 L-771.789917,520.309097 C-756.082671,531.134184 -733.115116,538 -707.451696,538 C-681.746752,538 -658.747255,531.111887 -643.038412,520.258133 L-642.947379,520.358469 C-642.947379,520.358469 -612.414473,499.391531 -586.67599,499.391531 C-560.937508,499.391531 -530.080395,520.358469 -530.080395,520.358469 L-530.043663,520.31706 C-514.336417,531.137369 -491.380041,538 -465.721412,538 C-440.01008,538 -417.004195,531.108702 -401.295352,520.248577 L-401.196333,520.358469 C-401.196333,520.358469 -370.663427,499.391531 -344.924945,499.391531 C-319.184865,499.391531 -288.32935,520.358469 -288.32935,520.358469 L-288.302199,520.326616 C-272.593356,531.140555 -249.640175,538 -223.989531,538 C-198.271811,538 -175.262732,531.107109 -159.552291,520.240614 L-159.446884,520.358469 C-159.446884,520.358469 -128.913979,499.391531 -103.172302,499.391531 C-77.4370133,499.391531 -46.5799009,520.358469 -46.5799009,520.358469 L-46.5591389,520.334579 C-30.8502959,531.14374 -7.90350271,538 17.7423495,538 C43.4680555,538 66.4835229,531.102332 82.192366,520.235836 L82.3041613,520.358469 C82.3041613,520.358469 112.838664,499.391531 138.577147,499.391531 C164.31563,499.391531 195.172742,520.358469 195.172742,520.358469 L195.187116,520.342542 C210.88957,531.145333 233.837961,538 259.472633,538 C283.620428,538 305.422117,531.943239 321,522.212287 L321,485.820755 C305.422117,495.551707 283.620428,501.608469 259.472633,501.608469 C233.837961,501.608469 210.88957,494.753801 195.187116,483.949418" id="Fill-9-Copy-5" fill="#FDC12C" mask="url(#mask-2)"></path>
                <path d="M195.187116,251.949418 L195.172742,251.966937 C195.172742,251.966937 164.31563,231 138.577147,231 C112.838664,231 82.3041613,251.966937 82.3041613,251.966937 L82.192366,251.842712 C66.4835229,262.709208 43.4680555,269.606876 17.7423495,269.606876 C-7.90350271,269.606876 -30.8502959,262.752208 -46.5591389,251.941455 L-46.5799009,251.966937 C-46.5799009,251.966937 -77.4370133,231 -103.172302,231 C-128.913979,231 -159.446884,251.966937 -159.446884,251.966937 L-159.552291,251.849083 C-175.262732,262.713985 -198.271811,269.606876 -223.989531,269.606876 C-249.640175,269.606876 -272.593356,262.747431 -288.302199,251.933492 L-288.32935,251.966937 C-288.32935,251.966937 -319.184865,231 -344.924945,231 C-370.663427,231 -401.196333,251.966937 -401.196333,251.966937 L-401.295352,251.855453 C-417.004195,262.715578 -440.01008,269.606876 -465.721412,269.606876 C-491.380041,269.606876 -514.336417,262.744245 -530.043663,251.923936 L-530.080395,251.966937 C-530.080395,251.966937 -560.937508,231 -586.67599,231 C-612.414473,231 -642.947379,251.966937 -642.947379,251.966937 L-643.038412,251.865009 C-658.747255,262.718763 -681.746752,269.606876 -707.451696,269.606876 C-733.115116,269.606876 -756.082671,262.742653 -771.789917,251.915973 L-771.831441,251.966937 C-771.831441,251.966937 -802.686956,231 -828.423842,231 C-854.165519,231 -884.700022,251.966937 -884.700022,251.966937 L-884.779875,251.874565 C-900.490316,262.723541 -923.485021,269.606876 -949.183577,269.606876 C-977.373572,269.606876 -1002.38059,261.363438 -1018,248.639939 L-1018,285.033063 C-1002.38059,297.754969 -977.373572,306 -949.183577,306 C-923.485021,306 -900.490316,299.115073 -884.779875,288.267689 L-884.700022,288.358469 C-884.700022,288.358469 -854.165519,267.391531 -828.423842,267.391531 C-802.686956,267.391531 -771.831441,288.358469 -771.831441,288.358469 L-771.789917,288.309097 C-756.082671,299.134184 -733.115116,306 -707.451696,306 C-681.746752,306 -658.747255,299.110295 -643.038412,288.258133 L-642.947379,288.358469 C-642.947379,288.358469 -612.414473,267.391531 -586.67599,267.391531 C-560.937508,267.391531 -530.080395,288.358469 -530.080395,288.358469 L-530.043663,288.31706 C-514.336417,299.135777 -491.380041,306 -465.721412,306 C-440.01008,306 -417.004195,299.107109 -401.295352,288.248577 L-401.196333,288.358469 C-401.196333,288.358469 -370.663427,267.391531 -344.924945,267.391531 C-319.184865,267.391531 -288.32935,288.358469 -288.32935,288.358469 L-288.302199,288.326616 C-272.593356,299.140555 -249.640175,306 -223.989531,306 C-198.271811,306 -175.262732,299.105517 -159.552291,288.240614 L-159.446884,288.358469 C-159.446884,288.358469 -128.913979,267.391531 -103.172302,267.391531 C-77.4370133,267.391531 -46.5799009,288.358469 -46.5799009,288.358469 L-46.5591389,288.334579 C-30.8502959,299.14374 -7.90350271,306 17.7423495,306 C43.4680555,306 66.4835229,299.102332 82.192366,288.234244 L82.3041613,288.358469 C82.3041613,288.358469 112.838664,267.391531 138.577147,267.391531 C164.31563,267.391531 195.172742,288.358469 195.172742,288.358469 L195.187116,288.34095 C210.88957,299.146925 233.837961,306 259.472633,306 C283.620428,306 305.422117,299.943239 321,290.212287 L321,253.819162 C305.422117,263.550115 283.620428,269.606876 259.472633,269.606876 C233.837961,269.606876 210.88957,262.753801 195.187116,251.949418" id="Fill-11-Copy-2" fill="#FDC12C" mask="url(#mask-2)"></path>
                <path d="M195.187116,405.948528 L195.172742,405.967639 C195.172742,405.967639 164.31563,385 138.577147,385 C112.838664,385 82.3041613,405.967639 82.3041613,405.967639 L82.192366,405.841827 C66.4835229,416.709453 43.4680555,423.608421 17.7423495,423.608421 C-7.90350271,423.608421 -30.8502959,416.754045 -46.5591389,405.940566 L-46.5799009,405.967639 C-46.5799009,405.967639 -77.4370133,385 -103.172302,385 C-128.913979,385 -159.446884,405.967639 -159.446884,405.967639 L-159.552291,405.84979 C-175.262732,416.715824 -198.271811,423.608421 -223.989531,423.608421 C-249.640175,423.608421 -272.593356,416.746082 -288.302199,405.932603 L-288.32935,405.967639 C-288.32935,405.967639 -319.184865,385 -344.924945,385 C-370.663427,385 -401.196333,405.967639 -401.196333,405.967639 L-401.295352,405.857753 C-417.004195,416.715824 -440.01008,423.608421 -465.721412,423.608421 C-491.380041,423.608421 -514.336417,416.746082 -530.043663,405.926233 L-530.080395,405.967639 C-530.080395,405.967639 -560.937508,385 -586.67599,385 C-612.414473,385 -642.947379,405.967639 -642.947379,405.967639 L-643.038412,405.864123 C-658.747255,416.720601 -681.746752,423.608421 -707.451696,423.608421 C-733.115116,423.608421 -756.082671,416.742897 -771.789917,405.91827 L-771.831441,405.967639 C-771.831441,405.967639 -802.686956,385 -828.423842,385 C-854.165519,385 -884.700022,405.967639 -884.700022,405.967639 L-884.779875,405.876863 C-900.490316,416.723786 -923.485021,423.608421 -949.183577,423.608421 C-977.373572,423.608421 -1002.38059,415.363741 -1018,402.640782 L-1018,439.032361 C-1002.38059,451.755319 -977.373572,460 -949.183577,460 C-923.485021,460 -900.490316,453.116958 -884.779875,442.265257 L-884.700022,442.356033 C-884.700022,442.356033 -854.165519,421.391579 -828.423842,421.391579 C-802.686956,421.391579 -771.831441,442.356033 -771.831441,442.356033 L-771.789917,442.309848 C-756.082671,453.131291 -733.115116,460 -707.451696,460 C-681.746752,460 -658.747255,453.108995 -643.038412,442.257294 L-642.947379,442.356033 C-642.947379,442.356033 -612.414473,421.391579 -586.67599,421.391579 C-560.937508,421.391579 -530.080395,442.356033 -530.080395,442.356033 L-530.043663,442.317811 C-514.336417,453.136068 -491.380041,460 -465.721412,460 C-440.01008,460 -417.004195,453.108995 -401.295352,442.250924 L-401.196333,442.356033 C-401.196333,442.356033 -370.663427,421.391579 -344.924945,421.391579 C-319.184865,421.391579 -288.32935,442.356033 -288.32935,442.356033 L-288.302199,442.325774 C-272.593356,453.139253 -249.640175,460 -223.989531,460 C-198.271811,460 -175.262732,453.104217 -159.552291,442.241368 L-159.446884,442.356033 C-159.446884,442.356033 -128.913979,421.391579 -103.172302,421.391579 C-77.4370133,421.391579 -46.5799009,442.356033 -46.5799009,442.356033 L-46.5591389,442.333737 C-30.8502959,453.144031 -7.90350271,460 17.7423495,460 C43.4680555,460 66.4835229,453.101032 82.192366,442.234998 L82.3041613,442.356033 C82.3041613,442.356033 112.838664,421.391579 138.577147,421.391579 C164.31563,421.391579 195.172742,442.356033 195.172742,442.356033 L195.187116,442.3417 C210.88957,453.147216 233.837961,460 259.472633,460 C283.620428,460 305.422117,453.943496 321,444.211365 L321,407.819786 C305.422117,417.551917 283.620428,423.608421 259.472633,423.608421 C233.837961,423.608421 210.88957,416.754045 195.187116,405.948528" id="Fill-16-Copy-2" fill="#FDC12C" mask="url(#mask-2)"></path>
                <path d="M195.187116,20.9494182 L195.172742,20.9669371 C195.172742,20.9669371 164.31563,0 138.577147,0 C112.838664,0 82.3041613,20.9669371 82.3041613,20.9669371 L82.192366,20.8427121 C66.4835229,31.7092075 43.4680555,38.6068759 17.7423495,38.6068759 C-7.90350271,38.6068759 -30.8502959,31.7522084 -46.5591389,20.941455 L-46.5799009,20.9669371 C-46.5799009,20.9669371 -77.4370133,0 -103.172302,0 C-128.913979,0 -159.446884,20.9669371 -159.446884,20.9669371 L-159.552291,20.8490826 C-175.262732,31.7139854 -198.271811,38.6068759 -223.989531,38.6068759 C-249.640175,38.6068759 -272.593356,31.7474306 -288.302199,20.9334919 L-288.32935,20.9669371 C-288.32935,20.9669371 -319.184865,0 -344.924945,0 C-370.663427,0 -401.196333,20.9669371 -401.196333,20.9669371 L-401.295352,20.8554532 C-417.004195,31.715578 -440.01008,38.6068759 -465.721412,38.6068759 C-491.380041,38.6068759 -514.336417,31.7442453 -530.043663,20.9255288 L-530.080395,20.9669371 C-530.080395,20.9669371 -560.937508,0 -586.67599,0 C-612.414473,0 -642.947379,20.9669371 -642.947379,20.9669371 L-643.038412,20.8650089 C-658.747255,31.7187633 -681.746752,38.6068759 -707.451696,38.6068759 C-733.115116,38.6068759 -756.082671,31.7426527 -771.789917,20.915973 L-771.831441,20.9669371 C-771.831441,20.9669371 -802.686956,0 -828.423842,0 C-854.165519,0 -884.700022,20.9669371 -884.700022,20.9669371 L-884.779875,20.8745647 C-900.490316,31.7235412 -923.485021,38.6068759 -949.183577,38.6068759 C-977.373572,38.6068759 -1002.38059,30.3634375 -1018,17.6399388 L-1018,54.0330629 C-1002.38059,66.754969 -977.373572,75 -949.183577,75 C-923.485021,75 -900.490316,68.1150726 -884.779875,57.2676888 L-884.700022,57.3584685 C-884.700022,57.3584685 -854.165519,36.3915315 -828.423842,36.3915315 C-802.686956,36.3915315 -771.831441,57.3584685 -771.831441,57.3584685 L-771.789917,57.3090971 C-756.082671,68.1341842 -733.115116,75 -707.451696,75 C-681.746752,75 -658.747255,68.1118874 -643.038412,57.258133 L-642.947379,57.3584685 C-642.947379,57.3584685 -612.414473,36.3915315 -586.67599,36.3915315 C-560.937508,36.3915315 -530.080395,57.3584685 -530.080395,57.3584685 L-530.043663,57.3170602 C-514.336417,68.1357768 -491.380041,75 -465.721412,75 C-440.01008,75 -417.004195,68.1071095 -401.295352,57.2485773 L-401.196333,57.3584685 C-401.196333,57.3584685 -370.663427,36.3915315 -344.924945,36.3915315 C-319.184865,36.3915315 -288.32935,57.3584685 -288.32935,57.3584685 L-288.302199,57.326616 C-272.593356,68.1405547 -249.640175,75 -223.989531,75 C-198.271811,75 -175.262732,68.1055169 -159.552291,57.2406141 L-159.446884,57.3584685 C-159.446884,57.3584685 -128.913979,36.3915315 -103.172302,36.3915315 C-77.4370133,36.3915315 -46.5799009,57.3584685 -46.5799009,57.3584685 L-46.5591389,57.3345791 C-30.8502959,68.1437399 -7.90350271,75 17.7423495,75 C43.4680555,75 66.4835229,68.1023316 82.192366,57.2342436 L82.3041613,57.3584685 C82.3041613,57.3584685 112.838664,36.3915315 138.577147,36.3915315 C164.31563,36.3915315 195.172742,57.3584685 195.172742,57.3584685 L195.187116,57.3409496 C210.88957,68.1453325 233.837961,75 259.472633,75 C283.620428,75 305.422117,68.9432388 321,59.2122866 L321,22.8191625 C305.422117,32.5501147 283.620428,38.6068759 259.472633,38.6068759 C233.837961,38.6068759 210.88957,31.7538011 195.187116,20.9494182" id="Fill-1-Copy-4" fill="#FDC12C" mask="url(#mask-2)"></path>
                <path d="M195.187116,174.949418 L195.172742,174.966937 C195.172742,174.966937 164.31563,154 138.577147,154 C112.838664,154 82.3041613,174.966937 82.3041613,174.966937 L82.192366,174.842712 C66.4835229,185.7108 43.4680555,192.608469 17.7423495,192.608469 C-7.90350271,192.608469 -30.8502959,185.752208 -46.5591389,174.941455 L-46.5799009,174.966937 C-46.5799009,174.966937 -77.4370133,154 -103.172302,154 C-128.913979,154 -159.446884,174.966937 -159.446884,174.966937 L-159.552291,174.849083 C-175.262732,185.713985 -198.271811,192.608469 -223.989531,192.608469 C-249.640175,192.608469 -272.593356,185.749023 -288.302199,174.935085 L-288.32935,174.966937 C-288.32935,174.966937 -319.184865,154 -344.924945,154 C-370.663427,154 -401.196333,174.966937 -401.196333,174.966937 L-401.295352,174.857046 C-417.004195,185.715578 -440.01008,192.608469 -465.721412,192.608469 C-491.380041,192.608469 -514.336417,185.744245 -530.043663,174.925529 L-530.080395,174.966937 C-530.080395,174.966937 -560.937508,154 -586.67599,154 C-612.414473,154 -642.947379,174.966937 -642.947379,174.966937 L-643.038412,174.866602 C-658.747255,185.720356 -681.746752,192.608469 -707.451696,192.608469 C-733.115116,192.608469 -756.082671,185.742653 -771.789917,174.917566 L-771.831441,174.966937 C-771.831441,174.966937 -802.686956,154 -828.423842,154 C-854.165519,154 -884.700022,174.966937 -884.700022,174.966937 L-884.779875,174.874565 C-900.490316,185.723541 -923.485021,192.608469 -949.183577,192.608469 C-977.373572,192.608469 -1002.38059,184.363438 -1018,171.641531 L-1018,208.033063 C-1002.38059,220.754969 -977.373572,229 -949.183577,229 C-923.485021,229 -900.490316,222.116665 -884.779875,211.267689 L-884.700022,211.358469 C-884.700022,211.358469 -854.165519,190.391531 -828.423842,190.391531 C-802.686956,190.391531 -771.831441,211.358469 -771.831441,211.358469 L-771.789917,211.309097 C-756.082671,222.134184 -733.115116,229 -707.451696,229 C-681.746752,229 -658.747255,222.111887 -643.038412,211.258133 L-642.947379,211.358469 C-642.947379,211.358469 -612.414473,190.391531 -586.67599,190.391531 C-560.937508,190.391531 -530.080395,211.358469 -530.080395,211.358469 L-530.043663,211.31706 C-514.336417,222.137369 -491.380041,229 -465.721412,229 C-440.01008,229 -417.004195,222.108702 -401.295352,211.248577 L-401.196333,211.358469 C-401.196333,211.358469 -370.663427,190.391531 -344.924945,190.391531 C-319.184865,190.391531 -288.32935,211.358469 -288.32935,211.358469 L-288.302199,211.326616 C-272.593356,222.140555 -249.640175,229 -223.989531,229 C-198.271811,229 -175.262732,222.107109 -159.552291,211.240614 L-159.446884,211.358469 C-159.446884,211.358469 -128.913979,190.391531 -103.172302,190.391531 C-77.4370133,190.391531 -46.5799009,211.358469 -46.5799009,211.358469 L-46.5591389,211.334579 C-30.8502959,222.14374 -7.90350271,229 17.7423495,229 C43.4680555,229 66.4835229,222.102332 82.192366,211.235836 L82.3041613,211.358469 C82.3041613,211.358469 112.838664,190.391531 138.577147,190.391531 C164.31563,190.391531 195.172742,211.358469 195.172742,211.358469 L195.187116,211.342542 C210.88957,222.145333 233.837961,229 259.472633,229 C283.620428,229 305.422117,222.943239 321,213.212287 L321,176.820755 C305.422117,186.551707 283.620428,192.608469 259.472633,192.608469 C233.837961,192.608469 210.88957,185.753801 195.187116,174.949418" id="Fill-9-Copy-4" fill="#FDC12C" mask="url(#mask-2)"></path>
            </g>
        </g>
    </g>
</svg>
