<?xml version="1.0" encoding="UTF-8"?>
<svg preserveAspectRatio="none" width="305px" height="538px" viewBox="0 0 305 538" version="1.1" xmlns="http://www.w3.org/2000/svg" xmlns:xlink="http://www.w3.org/1999/xlink">
    <!-- Generator: Sketch 52.5 (67469) - http://www.bohemiancoding.com/sketch -->
    <title>Group 48</title>
    <desc>Created with Sketch.</desc>
    <defs>
        <rect id="path-1" x="0" y="0" width="305" height="542"></rect>
    </defs>
    <g id="001_home_v1" stroke="none" stroke-width="1" fill="none" fill-rule="evenodd">
        <g id="001a_vd_home_v3-copy" transform="translate(-1135.000000, -349.000000)">
            <g id="Group-34" transform="translate(1135.000000, 349.000000)">
                <g id="Group-48">
                    <mask id="mask-2" fill="white">
                        <use xlink:href="#path-1"></use>
                    </mask>
                    <g id="Mask"></g>
                    <path d="M1213.18712,20.9494182 L1213.17274,20.9669371 C1213.17274,20.9669371 1182.31563,0 1156.57715,0 C1130.83866,0 1100.30416,20.9669371 1100.30416,20.9669371 L1100.19237,20.8427121 C1084.48352,31.7092075 1061.46806,38.6068759 1035.74235,38.6068759 C1010.0965,38.6068759 987.149704,31.7522084 971.440861,20.941455 L971.420099,20.9669371 C971.420099,20.9669371 940.562987,0 914.827698,0 C889.086021,0 858.553116,20.9669371 858.553116,20.9669371 L858.447709,20.8490826 C842.737268,31.7139854 819.728189,38.6068759 794.010469,38.6068759 C768.359825,38.6068759 745.406644,31.7474306 729.697801,20.9334919 L729.67065,20.9669371 C729.67065,20.9669371 698.815135,0 673.075055,0 C647.336573,0 616.803667,20.9669371 616.803667,20.9669371 L616.704648,20.8554532 C600.995805,31.715578 577.98992,38.6068759 552.278588,38.6068759 C526.619959,38.6068759 503.663583,31.7442453 487.956337,20.9255288 L487.919605,20.9669371 C487.919605,20.9669371 457.062492,0 431.32401,0 C405.585527,0 375.052621,20.9669371 375.052621,20.9669371 L374.961588,20.8650089 C359.252745,31.7187633 336.253248,38.6068759 310.548304,38.6068759 C284.884884,38.6068759 261.917329,31.7426527 246.210083,20.915973 L246.168559,20.9669371 C246.168559,20.9669371 215.313044,0 189.576158,0 C163.834481,0 133.299978,20.9669371 133.299978,20.9669371 L133.220125,20.8745647 C117.509684,31.7235412 94.514979,38.6068759 68.8164233,38.6068759 C40.6264285,38.6068759 15.6194068,30.3634375 0,17.6399388 L0,54.0330629 C15.6194068,66.754969 40.6264285,75 68.8164233,75 C94.514979,75 117.509684,68.1150726 133.220125,57.2676888 L133.299978,57.3584685 C133.299978,57.3584685 163.834481,36.3915315 189.576158,36.3915315 C215.313044,36.3915315 246.168559,57.3584685 246.168559,57.3584685 L246.210083,57.3090971 C261.917329,68.1341842 284.884884,75 310.548304,75 C336.253248,75 359.252745,68.1118874 374.961588,57.258133 L375.052621,57.3584685 C375.052621,57.3584685 405.585527,36.3915315 431.32401,36.3915315 C457.062492,36.3915315 487.919605,57.3584685 487.919605,57.3584685 L487.956337,57.3170602 C503.663583,68.1357768 526.619959,75 552.278588,75 C577.98992,75 600.995805,68.1071095 616.704648,57.2485773 L616.803667,57.3584685 C616.803667,57.3584685 647.336573,36.3915315 673.075055,36.3915315 C698.815135,36.3915315 729.67065,57.3584685 729.67065,57.3584685 L729.697801,57.326616 C745.406644,68.1405547 768.359825,75 794.010469,75 C819.728189,75 842.737268,68.1055169 858.447709,57.2406141 L858.553116,57.3584685 C858.553116,57.3584685 889.086021,36.3915315 914.827698,36.3915315 C940.562987,36.3915315 971.420099,57.3584685 971.420099,57.3584685 L971.440861,57.3345791 C987.149704,68.1437399 1010.0965,75 1035.74235,75 C1061.46806,75 1084.48352,68.1023316 1100.19237,57.2342436 L1100.30416,57.3584685 C1100.30416,57.3584685 1130.83866,36.3915315 1156.57715,36.3915315 C1182.31563,36.3915315 1213.17274,57.3584685 1213.17274,57.3584685 L1213.18712,57.3409496 C1228.88957,68.1453325 1251.83796,75 1277.47263,75 C1301.62043,75 1323.42212,68.9432388 1339,59.2122866 L1339,22.8191625 C1323.42212,32.5501147 1301.62043,38.6068759 1277.47263,38.6068759 C1251.83796,38.6068759 1228.88957,31.7538011 1213.18712,20.9494182" id="Fill-1-Copy-7" fill="#FDC12C" mask="url(#mask-2)"></path>
                    <path d="M1213.18712,329.949418 L1213.17274,329.966937 C1213.17274,329.966937 1182.31563,309 1156.57715,309 C1130.83866,309 1100.30416,329.966937 1100.30416,329.966937 L1100.19237,329.842712 C1084.48352,340.709208 1061.46806,347.606876 1035.74235,347.606876 C1010.0965,347.606876 987.149704,340.752208 971.440861,329.941455 L971.420099,329.966937 C971.420099,329.966937 940.562987,309 914.827698,309 C889.086021,309 858.553116,329.966937 858.553116,329.966937 L858.447709,329.849083 C842.737268,340.713985 819.728189,347.606876 794.010469,347.606876 C768.359825,347.606876 745.406644,340.747431 729.697801,329.933492 L729.67065,329.966937 C729.67065,329.966937 698.815135,309 673.075055,309 C647.336573,309 616.803667,329.966937 616.803667,329.966937 L616.704648,329.855453 C600.995805,340.715578 577.98992,347.606876 552.278588,347.606876 C526.619959,347.606876 503.663583,340.744245 487.956337,329.925529 L487.919605,329.966937 C487.919605,329.966937 457.062492,309 431.32401,309 C405.585527,309 375.052621,329.966937 375.052621,329.966937 L374.961588,329.865009 C359.252745,340.718763 336.253248,347.606876 310.548304,347.606876 C284.884884,347.606876 261.917329,340.742653 246.210083,329.915973 L246.168559,329.966937 C246.168559,329.966937 215.313044,309 189.576158,309 C163.834481,309 133.299978,329.966937 133.299978,329.966937 L133.220125,329.874565 C117.509684,340.723541 94.514979,347.606876 68.8164233,347.606876 C40.6264285,347.606876 15.6194068,339.363438 0,326.639939 L0,363.033063 C15.6194068,375.754969 40.6264285,384 68.8164233,384 C94.514979,384 117.509684,377.115073 133.220125,366.267689 L133.299978,366.358469 C133.299978,366.358469 163.834481,345.391531 189.576158,345.391531 C215.313044,345.391531 246.168559,366.358469 246.168559,366.358469 L246.210083,366.309097 C261.917329,377.134184 284.884884,384 310.548304,384 C336.253248,384 359.252745,377.111887 374.961588,366.258133 L375.052621,366.358469 C375.052621,366.358469 405.585527,345.391531 431.32401,345.391531 C457.062492,345.391531 487.919605,366.358469 487.919605,366.358469 L487.956337,366.31706 C503.663583,377.135777 526.619959,384 552.278588,384 C577.98992,384 600.995805,377.107109 616.704648,366.248577 L616.803667,366.358469 C616.803667,366.358469 647.336573,345.391531 673.075055,345.391531 C698.815135,345.391531 729.67065,366.358469 729.67065,366.358469 L729.697801,366.326616 C745.406644,377.140555 768.359825,384 794.010469,384 C819.728189,384 842.737268,377.105517 858.447709,366.240614 L858.553116,366.358469 C858.553116,366.358469 889.086021,345.391531 914.827698,345.391531 C940.562987,345.391531 971.420099,366.358469 971.420099,366.358469 L971.440861,366.334579 C987.149704,377.14374 1010.0965,384 1035.74235,384 C1061.46806,384 1084.48352,377.102332 1100.19237,366.234244 L1100.30416,366.358469 C1100.30416,366.358469 1130.83866,345.391531 1156.57715,345.391531 C1182.31563,345.391531 1213.17274,366.358469 1213.17274,366.358469 L1213.18712,366.34095 C1228.88957,377.145333 1251.83796,384 1277.47263,384 C1301.62043,384 1323.42212,377.943239 1339,368.212287 L1339,331.819162 C1323.42212,341.550115 1301.62043,347.606876 1277.47263,347.606876 C1251.83796,347.606876 1228.88957,340.753801 1213.18712,329.949418" id="Fill-1-Copy-11" fill="#FDC12C" mask="url(#mask-2)"></path>
                    <path d="M1213.18712,97.9494182 L1213.17274,97.9669371 C1213.17274,97.9669371 1182.31563,77 1156.57715,77 C1130.83866,77 1100.30416,97.9669371 1100.30416,97.9669371 L1100.19237,97.8427121 C1084.48352,108.7108 1061.46806,115.608469 1035.74235,115.608469 C1010.0965,115.608469 987.149704,108.752208 971.440861,97.941455 L971.420099,97.9669371 C971.420099,97.9669371 940.562987,77 914.827698,77 C889.086021,77 858.553116,97.9669371 858.553116,97.9669371 L858.447709,97.8490826 C842.737268,108.713985 819.728189,115.608469 794.010469,115.608469 C768.359825,115.608469 745.406644,108.749023 729.697801,97.9334919 L729.67065,97.9669371 C729.67065,97.9669371 698.815135,77 673.075055,77 C647.336573,77 616.803667,97.9669371 616.803667,97.9669371 L616.704648,97.8554532 C600.995805,108.715578 577.98992,115.608469 552.278588,115.608469 C526.619959,115.608469 503.663583,108.744245 487.956337,97.9255288 L487.919605,97.9669371 C487.919605,97.9669371 457.062492,77 431.32401,77 C405.585527,77 375.052621,97.9669371 375.052621,97.9669371 L374.961588,97.8650089 C359.252745,108.718763 336.253248,115.608469 310.548304,115.608469 C284.884884,115.608469 261.917329,108.742653 246.210083,97.9175656 L246.168559,97.9669371 C246.168559,97.9669371 215.313044,77 189.576158,77 C163.834481,77 133.299978,97.9669371 133.299978,97.9669371 L133.220125,97.8761573 C117.509684,108.723541 94.514979,115.608469 68.8164233,115.608469 C40.6264285,115.608469 15.6194068,107.363438 0,94.6399388 L0,131.033063 C15.6194068,143.754969 40.6264285,152 68.8164233,152 C94.514979,152 117.509684,145.116665 133.220125,134.267689 L133.299978,134.358469 C133.299978,134.358469 163.834481,113.391531 189.576158,113.391531 C215.313044,113.391531 246.168559,134.358469 246.168559,134.358469 L246.210083,134.309097 C261.917329,145.134184 284.884884,152 310.548304,152 C336.253248,152 359.252745,145.111887 374.961588,134.258133 L375.052621,134.358469 C375.052621,134.358469 405.585527,113.391531 431.32401,113.391531 C457.062492,113.391531 487.919605,134.358469 487.919605,134.358469 L487.956337,134.31706 C503.663583,145.135777 526.619959,152 552.278588,152 C577.98992,152 600.995805,145.108702 616.704648,134.248577 L616.803667,134.358469 C616.803667,134.358469 647.336573,113.391531 673.075055,113.391531 C698.815135,113.391531 729.67065,134.358469 729.67065,134.358469 L729.697801,134.326616 C745.406644,145.140555 768.359825,152 794.010469,152 C819.728189,152 842.737268,145.105517 858.447709,134.240614 L858.553116,134.358469 C858.553116,134.358469 889.086021,113.391531 914.827698,113.391531 C940.562987,113.391531 971.420099,134.358469 971.420099,134.358469 L971.440861,134.334579 C987.149704,145.145333 1010.0965,152 1035.74235,152 C1061.46806,152 1084.48352,145.102332 1100.19237,134.235836 L1100.30416,134.358469 C1100.30416,134.358469 1130.83866,113.391531 1156.57715,113.391531 C1182.31563,113.391531 1213.17274,134.358469 1213.17274,134.358469 L1213.18712,134.342542 C1228.88957,145.146925 1251.83796,152 1277.47263,152 C1301.62043,152 1323.42212,145.943239 1339,136.212287 L1339,99.8191625 C1323.42212,109.551707 1301.62043,115.608469 1277.47263,115.608469 C1251.83796,115.608469 1228.88957,108.753801 1213.18712,97.9494182" id="Fill-5-Copy-5" fill="#FDC12C" mask="url(#mask-2)"></path>
                    <path d="M1213.18712,174.949418 L1213.17274,174.966937 C1213.17274,174.966937 1182.31563,154 1156.57715,154 C1130.83866,154 1100.30416,174.966937 1100.30416,174.966937 L1100.19237,174.842712 C1084.48352,185.7108 1061.46806,192.608469 1035.74235,192.608469 C1010.0965,192.608469 987.149704,185.752208 971.440861,174.941455 L971.420099,174.966937 C971.420099,174.966937 940.562987,154 914.827698,154 C889.086021,154 858.553116,174.966937 858.553116,174.966937 L858.447709,174.849083 C842.737268,185.713985 819.728189,192.608469 794.010469,192.608469 C768.359825,192.608469 745.406644,185.749023 729.697801,174.935085 L729.67065,174.966937 C729.67065,174.966937 698.815135,154 673.075055,154 C647.336573,154 616.803667,174.966937 616.803667,174.966937 L616.704648,174.857046 C600.995805,185.715578 577.98992,192.608469 552.278588,192.608469 C526.619959,192.608469 503.663583,185.744245 487.956337,174.925529 L487.919605,174.966937 C487.919605,174.966937 457.062492,154 431.32401,154 C405.585527,154 375.052621,174.966937 375.052621,174.966937 L374.961588,174.866602 C359.252745,185.720356 336.253248,192.608469 310.548304,192.608469 C284.884884,192.608469 261.917329,185.742653 246.210083,174.917566 L246.168559,174.966937 C246.168559,174.966937 215.313044,154 189.576158,154 C163.834481,154 133.299978,174.966937 133.299978,174.966937 L133.220125,174.874565 C117.509684,185.723541 94.514979,192.608469 68.8164233,192.608469 C40.6264285,192.608469 15.6194068,184.363438 0,171.641531 L0,208.033063 C15.6194068,220.754969 40.6264285,229 68.8164233,229 C94.514979,229 117.509684,222.116665 133.220125,211.267689 L133.299978,211.358469 C133.299978,211.358469 163.834481,190.391531 189.576158,190.391531 C215.313044,190.391531 246.168559,211.358469 246.168559,211.358469 L246.210083,211.309097 C261.917329,222.134184 284.884884,229 310.548304,229 C336.253248,229 359.252745,222.111887 374.961588,211.258133 L375.052621,211.358469 C375.052621,211.358469 405.585527,190.391531 431.32401,190.391531 C457.062492,190.391531 487.919605,211.358469 487.919605,211.358469 L487.956337,211.31706 C503.663583,222.137369 526.619959,229 552.278588,229 C577.98992,229 600.995805,222.108702 616.704648,211.248577 L616.803667,211.358469 C616.803667,211.358469 647.336573,190.391531 673.075055,190.391531 C698.815135,190.391531 729.67065,211.358469 729.67065,211.358469 L729.697801,211.326616 C745.406644,222.140555 768.359825,229 794.010469,229 C819.728189,229 842.737268,222.107109 858.447709,211.240614 L858.553116,211.358469 C858.553116,211.358469 889.086021,190.391531 914.827698,190.391531 C940.562987,190.391531 971.420099,211.358469 971.420099,211.358469 L971.440861,211.334579 C987.149704,222.14374 1010.0965,229 1035.74235,229 C1061.46806,229 1084.48352,222.102332 1100.19237,211.235836 L1100.30416,211.358469 C1100.30416,211.358469 1130.83866,190.391531 1156.57715,190.391531 C1182.31563,190.391531 1213.17274,211.358469 1213.17274,211.358469 L1213.18712,211.342542 C1228.88957,222.145333 1251.83796,229 1277.47263,229 C1301.62043,229 1323.42212,222.943239 1339,213.212287 L1339,176.820755 C1323.42212,186.551707 1301.62043,192.608469 1277.47263,192.608469 C1251.83796,192.608469 1228.88957,185.753801 1213.18712,174.949418" id="Fill-9-Copy-7" fill="#FDC12C" mask="url(#mask-2)"></path>
                    <path d="M1213.18712,483.949418 L1213.17274,483.966937 C1213.17274,483.966937 1182.31563,463 1156.57715,463 C1130.83866,463 1100.30416,483.966937 1100.30416,483.966937 L1100.19237,483.842712 C1084.48352,494.7108 1061.46806,501.608469 1035.74235,501.608469 C1010.0965,501.608469 987.149704,494.752208 971.440861,483.941455 L971.420099,483.966937 C971.420099,483.966937 940.562987,463 914.827698,463 C889.086021,463 858.553116,483.966937 858.553116,483.966937 L858.447709,483.849083 C842.737268,494.713985 819.728189,501.608469 794.010469,501.608469 C768.359825,501.608469 745.406644,494.749023 729.697801,483.935085 L729.67065,483.966937 C729.67065,483.966937 698.815135,463 673.075055,463 C647.336573,463 616.803667,483.966937 616.803667,483.966937 L616.704648,483.857046 C600.995805,494.715578 577.98992,501.608469 552.278588,501.608469 C526.619959,501.608469 503.663583,494.744245 487.956337,483.925529 L487.919605,483.966937 C487.919605,483.966937 457.062492,463 431.32401,463 C405.585527,463 375.052621,483.966937 375.052621,483.966937 L374.961588,483.866602 C359.252745,494.720356 336.253248,501.608469 310.548304,501.608469 C284.884884,501.608469 261.917329,494.742653 246.210083,483.917566 L246.168559,483.966937 C246.168559,483.966937 215.313044,463 189.576158,463 C163.834481,463 133.299978,483.966937 133.299978,483.966937 L133.220125,483.874565 C117.509684,494.723541 94.514979,501.608469 68.8164233,501.608469 C40.6264285,501.608469 15.6194068,493.363438 0,480.641531 L0,517.033063 C15.6194068,529.754969 40.6264285,538 68.8164233,538 C94.514979,538 117.509684,531.116665 133.220125,520.267689 L133.299978,520.358469 C133.299978,520.358469 163.834481,499.391531 189.576158,499.391531 C215.313044,499.391531 246.168559,520.358469 246.168559,520.358469 L246.210083,520.309097 C261.917329,531.134184 284.884884,538 310.548304,538 C336.253248,538 359.252745,531.111887 374.961588,520.258133 L375.052621,520.358469 C375.052621,520.358469 405.585527,499.391531 431.32401,499.391531 C457.062492,499.391531 487.919605,520.358469 487.919605,520.358469 L487.956337,520.31706 C503.663583,531.137369 526.619959,538 552.278588,538 C577.98992,538 600.995805,531.108702 616.704648,520.248577 L616.803667,520.358469 C616.803667,520.358469 647.336573,499.391531 673.075055,499.391531 C698.815135,499.391531 729.67065,520.358469 729.67065,520.358469 L729.697801,520.326616 C745.406644,531.140555 768.359825,538 794.010469,538 C819.728189,538 842.737268,531.107109 858.447709,520.240614 L858.553116,520.358469 C858.553116,520.358469 889.086021,499.391531 914.827698,499.391531 C940.562987,499.391531 971.420099,520.358469 971.420099,520.358469 L971.440861,520.334579 C987.149704,531.14374 1010.0965,538 1035.74235,538 C1061.46806,538 1084.48352,531.102332 1100.19237,520.235836 L1100.30416,520.358469 C1100.30416,520.358469 1130.83866,499.391531 1156.57715,499.391531 C1182.31563,499.391531 1213.17274,520.358469 1213.17274,520.358469 L1213.18712,520.342542 C1228.88957,531.145333 1251.83796,538 1277.47263,538 C1301.62043,538 1323.42212,531.943239 1339,522.212287 L1339,485.820755 C1323.42212,495.551707 1301.62043,501.608469 1277.47263,501.608469 C1251.83796,501.608469 1228.88957,494.753801 1213.18712,483.949418" id="Fill-9-Copy-9" fill="#FDC12C" mask="url(#mask-2)"></path>
                    <path d="M1213.18712,251.949418 L1213.17274,251.966937 C1213.17274,251.966937 1182.31563,231 1156.57715,231 C1130.83866,231 1100.30416,251.966937 1100.30416,251.966937 L1100.19237,251.842712 C1084.48352,262.709208 1061.46806,269.606876 1035.74235,269.606876 C1010.0965,269.606876 987.149704,262.752208 971.440861,251.941455 L971.420099,251.966937 C971.420099,251.966937 940.562987,231 914.827698,231 C889.086021,231 858.553116,251.966937 858.553116,251.966937 L858.447709,251.849083 C842.737268,262.713985 819.728189,269.606876 794.010469,269.606876 C768.359825,269.606876 745.406644,262.747431 729.697801,251.933492 L729.67065,251.966937 C729.67065,251.966937 698.815135,231 673.075055,231 C647.336573,231 616.803667,251.966937 616.803667,251.966937 L616.704648,251.855453 C600.995805,262.715578 577.98992,269.606876 552.278588,269.606876 C526.619959,269.606876 503.663583,262.744245 487.956337,251.923936 L487.919605,251.966937 C487.919605,251.966937 457.062492,231 431.32401,231 C405.585527,231 375.052621,251.966937 375.052621,251.966937 L374.961588,251.865009 C359.252745,262.718763 336.253248,269.606876 310.548304,269.606876 C284.884884,269.606876 261.917329,262.742653 246.210083,251.915973 L246.168559,251.966937 C246.168559,251.966937 215.313044,231 189.576158,231 C163.834481,231 133.299978,251.966937 133.299978,251.966937 L133.220125,251.874565 C117.509684,262.723541 94.514979,269.606876 68.8164233,269.606876 C40.6264285,269.606876 15.6194068,261.363438 0,248.639939 L0,285.033063 C15.6194068,297.754969 40.6264285,306 68.8164233,306 C94.514979,306 117.509684,299.115073 133.220125,288.267689 L133.299978,288.358469 C133.299978,288.358469 163.834481,267.391531 189.576158,267.391531 C215.313044,267.391531 246.168559,288.358469 246.168559,288.358469 L246.210083,288.309097 C261.917329,299.134184 284.884884,306 310.548304,306 C336.253248,306 359.252745,299.110295 374.961588,288.258133 L375.052621,288.358469 C375.052621,288.358469 405.585527,267.391531 431.32401,267.391531 C457.062492,267.391531 487.919605,288.358469 487.919605,288.358469 L487.956337,288.31706 C503.663583,299.135777 526.619959,306 552.278588,306 C577.98992,306 600.995805,299.107109 616.704648,288.248577 L616.803667,288.358469 C616.803667,288.358469 647.336573,267.391531 673.075055,267.391531 C698.815135,267.391531 729.67065,288.358469 729.67065,288.358469 L729.697801,288.326616 C745.406644,299.140555 768.359825,306 794.010469,306 C819.728189,306 842.737268,299.105517 858.447709,288.240614 L858.553116,288.358469 C858.553116,288.358469 889.086021,267.391531 914.827698,267.391531 C940.562987,267.391531 971.420099,288.358469 971.420099,288.358469 L971.440861,288.334579 C987.149704,299.14374 1010.0965,306 1035.74235,306 C1061.46806,306 1084.48352,299.102332 1100.19237,288.234244 L1100.30416,288.358469 C1100.30416,288.358469 1130.83866,267.391531 1156.57715,267.391531 C1182.31563,267.391531 1213.17274,288.358469 1213.17274,288.358469 L1213.18712,288.34095 C1228.88957,299.146925 1251.83796,306 1277.47263,306 C1301.62043,306 1323.42212,299.943239 1339,290.212287 L1339,253.819162 C1323.42212,263.550115 1301.62043,269.606876 1277.47263,269.606876 C1251.83796,269.606876 1228.88957,262.753801 1213.18712,251.949418" id="Fill-11-Copy-5" fill="#FDC12C" mask="url(#mask-2)"></path>
                    <path d="M1213.18712,405.948528 L1213.17274,405.967639 C1213.17274,405.967639 1182.31563,385 1156.57715,385 C1130.83866,385 1100.30416,405.967639 1100.30416,405.967639 L1100.19237,405.841827 C1084.48352,416.709453 1061.46806,423.608421 1035.74235,423.608421 C1010.0965,423.608421 987.149704,416.754045 971.440861,405.940566 L971.420099,405.967639 C971.420099,405.967639 940.562987,385 914.827698,385 C889.086021,385 858.553116,405.967639 858.553116,405.967639 L858.447709,405.84979 C842.737268,416.715824 819.728189,423.608421 794.010469,423.608421 C768.359825,423.608421 745.406644,416.746082 729.697801,405.932603 L729.67065,405.967639 C729.67065,405.967639 698.815135,385 673.075055,385 C647.336573,385 616.803667,405.967639 616.803667,405.967639 L616.704648,405.857753 C600.995805,416.715824 577.98992,423.608421 552.278588,423.608421 C526.619959,423.608421 503.663583,416.746082 487.956337,405.926233 L487.919605,405.967639 C487.919605,405.967639 457.062492,385 431.32401,385 C405.585527,385 375.052621,405.967639 375.052621,405.967639 L374.961588,405.864123 C359.252745,416.720601 336.253248,423.608421 310.548304,423.608421 C284.884884,423.608421 261.917329,416.742897 246.210083,405.91827 L246.168559,405.967639 C246.168559,405.967639 215.313044,385 189.576158,385 C163.834481,385 133.299978,405.967639 133.299978,405.967639 L133.220125,405.876863 C117.509684,416.723786 94.514979,423.608421 68.8164233,423.608421 C40.6264285,423.608421 15.6194068,415.363741 0,402.640782 L0,439.032361 C15.6194068,451.755319 40.6264285,460 68.8164233,460 C94.514979,460 117.509684,453.116958 133.220125,442.265257 L133.299978,442.356033 C133.299978,442.356033 163.834481,421.391579 189.576158,421.391579 C215.313044,421.391579 246.168559,442.356033 246.168559,442.356033 L246.210083,442.309848 C261.917329,453.131291 284.884884,460 310.548304,460 C336.253248,460 359.252745,453.108995 374.961588,442.257294 L375.052621,442.356033 C375.052621,442.356033 405.585527,421.391579 431.32401,421.391579 C457.062492,421.391579 487.919605,442.356033 487.919605,442.356033 L487.956337,442.317811 C503.663583,453.136068 526.619959,460 552.278588,460 C577.98992,460 600.995805,453.108995 616.704648,442.250924 L616.803667,442.356033 C616.803667,442.356033 647.336573,421.391579 673.075055,421.391579 C698.815135,421.391579 729.67065,442.356033 729.67065,442.356033 L729.697801,442.325774 C745.406644,453.139253 768.359825,460 794.010469,460 C819.728189,460 842.737268,453.104217 858.447709,442.241368 L858.553116,442.356033 C858.553116,442.356033 889.086021,421.391579 914.827698,421.391579 C940.562987,421.391579 971.420099,442.356033 971.420099,442.356033 L971.440861,442.333737 C987.149704,453.144031 1010.0965,460 1035.74235,460 C1061.46806,460 1084.48352,453.101032 1100.19237,442.234998 L1100.30416,442.356033 C1100.30416,442.356033 1130.83866,421.391579 1156.57715,421.391579 C1182.31563,421.391579 1213.17274,442.356033 1213.17274,442.356033 L1213.18712,442.3417 C1228.88957,453.147216 1251.83796,460 1277.47263,460 C1301.62043,460 1323.42212,453.943496 1339,444.211365 L1339,407.819786 C1323.42212,417.551917 1301.62043,423.608421 1277.47263,423.608421 C1251.83796,423.608421 1228.88957,416.754045 1213.18712,405.948528" id="Fill-16-Copy-3" fill="#FDC12C" mask="url(#mask-2)"></path>
                </g>
            </g>
        </g>
    </g>
</svg>
