<?xml version="1.0" encoding="utf-8"?>
<!-- Generator: Adobe Illustrator 23.0.1, SVG Export Plug-In . SVG Version: 6.00 Build 0)  -->
<svg version="1.1" id="Layer_1" xmlns="http://www.w3.org/2000/svg" xmlns:xlink="http://www.w3.org/1999/xlink" x="0px" y="0px"
	 viewBox="0 0 1819.9 83" style="enable-background:new 0 0 1819.9 83;" xml:space="preserve">
<style type="text/css">
	.st0{fill:#FFFFFF;}
</style>
<title>Fill 11 Copy 5</title>
<desc>Created with Sketch.</desc>
<path class="st0" d="M1239.3,23.1c-16.9,12-41.6,19.6-69.3,19.6c-27.6,0-52.3-7.6-69.2-19.6l0,0.1c0,0-33.2-23.2-60.9-23.2
	c-27.7,0-60.5,23.2-60.5,23.2l-0.1-0.1c-16.9,12-41.6,19.7-69.3,19.7c-27.6,0-52.3-7.6-69.2-19.5l0,0c0,0-33.2-23.2-60.9-23.2
	c-27.7,0-60.5,23.2-60.5,23.2l-0.1-0.1c-16.9,12-41.6,19.7-69.3,19.7c-27.6,0-52.3-7.6-69.2-19.6l0,0c0,0-33.2-23.2-60.9-23.2
	c-27.7,0-60.5,23.2-60.5,23.2l-0.1-0.1c-16.9,12-41.6,19.6-69.3,19.6c-27.6,0-52.3-7.6-69.2-19.6l0,0c0,0-33.2-23.2-60.9-23.2
	c-27.7,0-60.5,23.2-60.5,23.2l-0.1-0.1c-16.9,12-41.6,19.6-69.3,19.6c-27.6,0-52.3-7.6-69.2-19.6l0,0.1C60.9,23.2,27.7,0,0,0v40.3
	c27.7,0,60.9,23.2,60.9,23.2l0-0.1c16.9,12,41.6,19.6,69.2,19.6c27.6,0,52.4-7.6,69.3-19.6l0.1,0.1c0,0,32.8-23.2,60.5-23.2
	c27.7,0,60.9,23.2,60.9,23.2l0,0c16.9,12,41.6,19.6,69.2,19.6c27.7,0,52.4-7.6,69.3-19.6l0.1,0.1c0,0,32.8-23.2,60.5-23.2
	c27.7,0,60.9,23.2,60.9,23.2l0,0C597.8,75.4,622.4,83,650,83c27.7,0,52.4-7.6,69.3-19.7l0.1,0.1c0,0,32.8-23.2,60.5-23.2
	c27.7,0,60.9,23.2,60.9,23.2l0,0C857.7,75.4,882.4,83,910,83c27.7,0,52.4-7.6,69.3-19.7l0.1,0.1c0,0,32.8-23.2,60.5-23.2
	c27.7,0,60.9,23.2,60.9,23.2l0-0.1c16.9,12,41.6,19.6,69.2,19.6c27.6,0,52.4-7.6,69.3-19.6l0.1,0.1c0,0,32.8-23.2,60.5-23.2V0
	c-27.7,0-60.5,23.2-60.5,23.2L1239.3,23.1z"/>
<path class="st0" d="M1819.9,0c-27.7,0-60.5,23.2-60.5,23.2l-0.1-0.1c-16.9,12-41.6,19.6-69.3,19.6c-27.6,0-52.3-7.6-69.2-19.6l0,0
	c0,0-33.2-23.2-60.9-23.2c-27.7,0-60.5,23.2-60.5,23.2l-0.1-0.1c-16.9,12-41.6,19.6-69.3,19.6c-27.6,0-52.3-7.6-69.2-19.6l0,0.1
	c0,0-33.2-23.2-60.9-23.2v40.3c27.7,0,60.9,23.2,60.9,23.2l0-0.1c16.9,12,41.6,19.6,69.2,19.6c27.6,0,52.4-7.6,69.3-19.6l0.1,0.1
	c0,0,32.8-23.2,60.5-23.2c27.7,0,60.9,23.2,60.9,23.2l0,0c16.9,12,41.6,19.6,69.2,19.6c27.7,0,52.4-7.6,69.3-19.6l0.1,0.1
	c0,0,32.8-23.2,60.5-23.2V0z"/>
<title>Fill 11 Copy 4</title>
<desc>Created with Sketch.</desc>
</svg>
