<?xml version="1.0" encoding="UTF-8"?>
<svg width="301px" height="100px" viewBox="0 0 301 100" version="1.1" xmlns="http://www.w3.org/2000/svg" xmlns:xlink="http://www.w3.org/1999/xlink">
    <!-- Generator: Sketch 52.5 (67469) - http://www.bohemiancoding.com/sketch -->
    <title>Group 83</title>
    <desc>Created with Sketch.</desc>
    <defs>
        <polygon id="path-1" points="0 0.312711864 7.11076271 0.312711864 7.11076271 17.5652542 0 17.5652542"></polygon>
        <polygon id="path-3" points="0 100 300.847458 100 300.847458 0 0 0"></polygon>
    </defs>
    <g id="Symbols" stroke="none" stroke-width="1" fill="none" fill-rule="evenodd">
        <g id="menu-visual" transform="translate(-30.000000, -19.000000)">
            <g id="Group-83" transform="translate(30.000000, 19.000000)">
                <path d="M49.270956,69.0593737 C49.279597,68.9821075 49.3669671,67.0513506 49.3669671,67.0513506 C49.3669671,67.0513506 49.444736,66.8581851 49.5762712,66.8734586 C49.7078063,66.8887322 49.7414102,67.0513506 49.7414102,67.0513506 L49.774054,69.0593737 L49.270956,69.0593737 Z M50.8474576,66.6883791 L50.8474576,66.2706025 L48.420298,66.1016949 L48.3876543,66.7270122 C48.7092913,66.7036526 48.8667494,66.8887322 48.8667494,66.8887322 L48.8168237,69.0980068 L48.3050847,69.0980068 C48.3050847,69.0980068 48.3137257,69.3603525 48.3050847,69.4151577 L50.78121,69.4915254 L50.798492,69.0674597 L50.1292949,69.0593737 L50.1542578,66.8968182 C50.1628988,66.6955666 50.8474576,66.6883791 50.8474576,66.6883791 Z" id="Fill-1" fill="#152B50"></path>
                <path d="M23.0985413,68.8054883 L23.2724726,64.8807546 C23.2724726,64.8807546 23.2834578,64.5238887 23.7283558,64.5143933 C23.7283558,64.5143933 23.9791832,64.533384 24.0441786,64.7114213 C24.109174,64.8894586 24.1851545,68.8054883 24.1851545,68.8054883 L23.0985413,68.8054883 Z M25.0438261,68.9898558 L24.9998856,68.8054883 L24.6739931,68.8054883 L24.630968,64.8150786 C24.630968,64.8150786 24.8369394,64.410736 25.3266934,64.4202314 L25.3477483,63.8853281 L22.0338983,63.559322 L22.0338983,64.2232034 C22.0338983,64.2232034 22.6316729,64.2603934 22.7946191,64.5800693 C22.9575653,64.8989539 22.5456227,68.9036066 22.5456227,68.9036066 L22.5016821,69.4345535 L25.4237288,69.4915254 L25.4237288,68.9898558 L25.0438261,68.9898558 Z" id="Fill-3" fill="#152B50"></path>
                <path d="M7.6222336,69.8223382 L7.93175006,62.4663788 C7.93175006,62.4663788 8.06462328,61.8990662 8.49372565,61.9297991 C8.9220464,61.960532 9.00724159,62.1922746 9.03694267,62.404913 C9.06508053,62.6175514 9.19873536,69.8223382 9.19873536,69.8223382 L7.6222336,69.8223382 Z M9.70287202,69.9336411 L9.62627451,62.7903201 C9.62627451,62.7903201 9.61767683,62.3451085 9.80760738,62.324343 L9.89280257,61.7271282 L7.34945268,61.0169492 L7.04775229,69.9527453 L6.77966102,69.9527453 L6.77966102,70.3389831 L10.1694915,70.3389831 L10.1694915,69.9336411 L9.70287202,69.9336411 Z" id="Fill-5" fill="#152B50"></path>
                <path d="M11.8310362,69.5448326 L12.2446762,63.3091562 C12.2446762,63.3091562 12.3362513,62.912081 12.6513317,62.9011677 C12.6513317,62.9011677 13.0991184,62.9339075 13.0991184,63.2369607 C13.0991184,63.5400139 13.338921,69.5448326 13.338921,69.5448326 L11.8310362,69.5448326 Z M13.6594338,63.3956229 C13.6594338,63.3956229 13.6462408,62.9087231 14.4067797,62.9255127 L14.4067797,62.431897 L11.0169492,61.8644068 L11.0169492,62.6887786 C11.0169492,62.6887786 11.5904576,62.7072473 11.6308127,62.9867949 C11.6711678,63.2663426 11.3141802,70.0250166 11.3141802,70.0250166 L11.8046502,70.2667876 L14.0598808,70.3389831 L14.126622,69.6245834 L13.8092134,69.5448326 L13.6594338,63.3956229 Z" id="Fill-7" fill="#152B50"></path>
                <path d="M16.9709062,69.3003543 L17.2497275,64.1948644 C17.2497275,64.1948644 17.3460986,63.8873636 17.6997712,63.8776017 C18.0543795,63.8686532 18.1077111,64.1484952 18.1077111,64.1484952 L18.3210374,69.2865249 L18.3210374,69.4915254 L19.1266251,69.4915254 L18.8262841,64.1851025 C18.8262841,64.1851025 19.0087342,63.756391 19.4915254,63.7376806 L19.4915254,63.2813104 L16.4778229,62.7118644 L16.1016949,69.4915254 L16.9278667,69.4915254 L16.9709062,69.3003543 Z" id="Fill-9" fill="#152B50"></path>
                <path d="M43.0869481,68.7937601 L42.6084439,68.7937601 L42.6476097,66.2948939 C42.6476097,66.2948939 42.7353071,66.0994827 42.8826047,66.109622 C43.0290508,66.120683 43.1107882,66.3105636 43.1107882,66.3105636 L43.0869481,68.7937601 Z M43.5748181,68.8103516 L43.5407608,66.2847546 C43.5407608,66.2847546 43.5995096,65.9833421 44.0039393,65.9778116 L44.0337394,65.3805171 L41.5254237,65.2542373 C41.5254237,65.2754376 41.5441552,65.8828713 41.5441552,65.8828713 C41.5441552,65.8828713 42.1358997,65.835862 42.2278543,66.0257427 C42.3215117,66.2156233 42.3249174,66.3271551 42.3249174,66.4220955 C42.3249174,66.5170358 42.2091228,68.8361607 42.2091228,68.8361607 L41.608864,68.8628914 L41.5790639,69.4915254 L44.0677966,69.3541846 L44.0677966,68.7992906 L43.5748181,68.8103516 Z" id="Fill-11" fill="#152B50"></path>
                <path d="M35.9454206,65.2542373 L37.2881356,65.3769991 L37.2026123,65.51982 L37.1979474,65.9418639 C37.1979474,65.9418639 36.7602239,65.9867963 36.755559,66.1978182 C36.7501166,66.4088401 36.7983206,69.019735 36.7983206,69.019735 L37.2127196,69.019735 L37.2127196,69.4417788 L35.635982,69.4915254 L35.7028456,69.0542366 L36.34116,69.0542366 L36.3030633,66.2074466 C36.3030633,66.2074466 36.2455295,65.8736629 35.9454206,66.0798706 C35.6453118,66.2868807 35.5932203,65.7404703 35.5932203,65.7404703 L35.9454206,65.2542373 Z" id="Fill-13" fill="#152B50"></path>
                <path d="M56.1967852,69.1691747 L56.224636,67.7118644 C56.224636,67.7118644 56.3042094,67.5209884 56.407655,67.5209884 C56.5091112,67.5209884 56.5668019,67.6888959 56.5668019,67.6888959 L56.6185247,69.1691747 L56.1967852,69.1691747 Z M57.1088963,69.0733407 C57.1088963,69.0733407 56.9885414,67.5669254 57.0054508,67.5621733 C57.0233548,67.5574212 57.1088963,67.3309045 57.4112756,67.3309045 L57.4391263,66.9491525 L55.387125,66.9491525 C55.381157,66.9626168 55.387125,67.2897196 55.387125,67.2897196 C55.387125,67.2897196 55.8198058,67.2667511 55.8198058,67.4354507 C55.8198058,67.6025661 55.7581364,69.1691747 55.7581364,69.1691747 L55.0847458,69.2008554 L55.0847458,69.473309 L57.6271186,69.4915254 L57.6271186,69.0828449 L57.1088963,69.0733407 Z" id="Fill-15" fill="#152B50"></path>
                <path d="M61.7578083,69.1694066 L61.7768438,67.7116824 C61.7768438,67.7116824 61.830143,67.5215049 61.8986706,67.5215049 C61.9664367,67.5215049 62.005269,67.6898439 62.005269,67.6898439 L62.0387714,69.1694066 L61.7578083,69.1694066 Z M62.3661809,69.0747728 C62.3661809,69.0747728 62.286232,67.5670019 62.2976533,67.5624522 C62.3090746,67.5579025 62.3661809,67.3304175 62.5671951,67.3304175 L62.5862305,66.9491525 L61.2187248,66.9491525 C61.2149177,66.9628016 61.2187248,67.2903801 61.2187248,67.2903801 C61.2187248,67.2903801 61.507302,67.2667217 61.507302,67.4350606 C61.507302,67.6033995 61.465424,69.1694066 61.465424,69.1694066 L61.0169492,69.2012545 L61.0169492,69.4733266 L62.7118644,69.4915254 L62.7118644,69.0829623 L62.3661809,69.0747728 Z" id="Fill-17" fill="#152B50"></path>
                <path d="M65.1481056,69.1691991 L65.1664592,67.7120551 C65.1664592,67.7120551 65.220722,67.5213295 65.2885505,67.5213295 C65.3571771,67.5213295 65.3954802,67.6891681 65.3954802,67.6891681 L65.4297935,69.1691991 L65.1481056,69.1691991 Z M65.7561684,69.0738363 C65.7561684,69.0738363 65.6763701,67.56615 65.6875419,67.5613819 C65.6987137,67.5575674 65.7561684,67.3306038 65.95726,67.3306038 L65.9764116,66.9491525 L64.6086693,66.9491525 C64.6046794,66.9625033 64.6086693,67.2895978 64.6086693,67.2895978 C64.6086693,67.2895978 64.897539,67.2667107 64.897539,67.4345493 C64.897539,67.6023879 64.8560439,69.1691991 64.8560439,69.1691991 L64.4067797,69.2006688 L64.4067797,69.4734065 L66.1016949,69.4915254 L66.1016949,69.0833725 L65.7561684,69.0738363 Z" id="Fill-19" fill="#152B50"></path>
                <path d="M67.7098924,30.8342099 L21.9792059,47.0700034 C21.9792059,47.0700034 10.1653259,50.5578551 7.38593612,53.5808853 C4.60654635,56.6030704 7.38593612,58.1141629 7.38593612,58.1141629 C7.38593612,58.1141629 13.7984876,61.8775271 28.5812038,63.5787739 C42.1666185,65.1414194 60.6363834,66.3753092 68.7851062,66.7725204 L68.8061558,66.9491525 C68.8061558,66.9491525 62.9594177,66.9221084 53.9198756,66.5172911 C47.4147059,66.2265663 42.3779565,65.8868241 33.4074571,64.9614067 C16.9651901,63.2660758 9.16252273,61.4084799 9.16252273,61.4084799 C9.16252273,61.4084799 -0.798150077,58.8502712 0.0514119573,53.7355441 C0.900132007,48.6199719 14.4122941,43.350586 14.4122941,43.350586 L77.9661017,15.2542373 L67.7098924,30.8342099 Z" id="Fill-21" fill="#152B50"></path>
                <path d="M83.8983051,14.9322287 L21.3958045,41.8552389 L9.95399616,46.9796186 C9.95399616,46.9796186 4.06856103,50.5593447 3.08556191,52.0589597 C2.02050664,53.6836817 1.47123285,54.2550033 1.62446014,56.779661 C1.62446014,56.779661 -1.68792873,53.0673215 5.36555051,48.6869111 C11.6445202,44.7602217 13.7168565,44.2189258 19.9975008,41.4991012 C28.6293049,37.8017746 81.7480992,14.4067797 81.7480992,14.4067797 L83.8983051,14.9322287 Z" id="Fill-23" fill="#152B50"></path>
                <path d="M3.38983051,69.4915254 L4.22113548,60.498481 C4.22113548,60.498481 4.2771128,59.757829 3.816762,59.5909562 L3.59953659,59.5909562 L3.82511683,57.6271186 L5.69910381,57.7915253 L5.54704601,59.6674053 L5.93220339,69.4578221 L5.0307179,69.4520678 L4.89871169,60.943201 L4.67229596,60.9062095 L4.17685491,69.4915254 L3.38983051,69.4915254 Z" id="Fill-25" fill="#152B50"></path>
                <path d="M16.6987035,69.2801798 L17.2698746,57.120237 L17.7031208,49.9494633 C17.7031208,49.9494633 17.8507816,48.8775912 18.3821978,48.9390093 C18.9136141,49.0004274 19.1505203,49.8274684 19.1505203,49.8274684 L19.3273886,51.634675 L19.8896352,69.3079442 L16.6987035,69.2801798 Z M23.1381707,70.6246473 L23.1381707,70.012149 L22.4590937,70.012149 L22.4590937,69.2153964 L21.5723182,69.2153964 L20.7455805,49.6440555 C20.7455805,49.6440555 20.7455805,48.9087209 21.3954499,48.8775912 L22.3106217,48.8170144 L22.4590937,47.8974256 L22.0745268,47.8368488 L22.1337534,46.6101695 L14.5722271,47.2243505 L14.5722271,48.0816799 C14.5722271,48.0816799 16.1380796,48.143098 16.1672872,48.9390093 L14.9860016,69.3079442 L13.9223577,69.3079442 L13.9223577,70.012149 L13.2140731,70.012149 L13.2140731,70.6860654 L12.7118644,70.6860654 L12.7118644,72.0338983 L23.7288136,71.8807737 L23.7288136,70.6246473 L23.1381707,70.6246473 Z" id="Fill-27" fill="#152B50"></path>
                <polygon id="Fill-29" fill="#152B50" points="74.5762712 25.4237288 33.0508475 41.3541635 35.5062064 42.3728814 74.5762712 28.4781818"></polygon>
                <path d="M36.0909214,69.9572807 L37.2111882,44.6752539 L37.2111882,44.0407904 C37.681392,43.8100001 38.2706455,44.9060441 38.2706455,44.9060441 L38.3888388,46.0608348 L39.2136224,69.9572807 L36.0909214,69.9572807 Z M43.1748107,70.6890957 L43.1748107,69.8809101 L42.0211414,69.8423051 L40.8434908,44.5988833 C40.8434908,44.5988833 40.6858997,43.1193077 42.5709971,43.1193077 L42.8065272,42.0199067 L42.815092,41.4139773 L42.2027137,41.3854432 L42.2027137,40.6779661 L32.5845204,41.4853125 L32.5845204,43.11679 C32.5845204,43.11679 34.4225117,43.0404194 34.5595474,44.463766 L33.2243058,69.9186757 L32.2033898,69.9186757 L32.2033898,70.881281 L34.7591057,71.0734664 L34.7591057,73.7288136 L48.3050847,72.8778268 L48.3050847,70.5732809 L43.1748107,70.6890957 Z" id="Fill-31" fill="#152B50"></path>
                <path d="M33.0508475,36.9877086 L33.0508475,40.5840368 C33.0508475,40.5840368 12.9617725,47.0704962 9.57520442,48.6839432 C6.18863636,50.2973903 2.81792459,51.765912 1.6545742,53.6968546 C1.6545742,53.6968546 0.911832563,55.5398367 1.02449562,56.779661 C1.02449562,56.779661 -0.279057683,52.8080346 4.18824119,50.1030395 C6.87796737,48.4736757 8.22575135,47.5320794 9.32651115,46.9364611 C14.3370963,44.2247642 33.0508475,36.440678 33.0508475,36.440678 L33.0508475,36.9877086 Z" id="Fill-33" fill="#152B50"></path>
                <path d="M6.41554855,70.2821598 L7.30043618,54.8645296 C7.30043618,54.8645296 8.30900886,53.4091879 8.74066136,53.4558121 C9.17065367,53.5024363 9.16982357,54.0261262 9.16982357,54.0261262 L9.83390434,70.2821598 L6.41554855,70.2821598 Z M12.0718566,70.8249989 L12.0718566,70.2330378 L11.015138,70.2330378 L10.3759603,53.9270497 C10.3759603,53.9270497 10.5718641,53.2118675 11.064114,53.1627456 L11.8751226,53.1377683 L11.9249287,52.3243422 L11.6053398,52.3243422 L11.7032917,52.0029681 L4.98943508,51.6949153 L4.96453205,52.4475634 C4.96453205,52.4475634 6.31759663,52.7431276 6.2926936,53.5573863 L5.35799991,70.1839159 L3.95595937,70.1839159 L3.95595937,70.8990981 L3.38983051,70.8990981 L3.38983051,72.0338983 L12.7118644,71.9348218 L12.7118644,70.8249989 L12.0718566,70.8249989 Z" id="Fill-35" fill="#152B50"></path>
                <g id="Group-39" transform="translate(0.000000, 54.237288)">
                    <mask id="mask-2" fill="white">
                        <use xlink:href="#path-1"></use>
                    </mask>
                    <g id="Clip-38"></g>
                    <path d="M5.57432203,15.9940678 L2.52516949,15.9720339 L3.56584746,2.21610169 C3.56584746,2.21610169 3.71076271,1.69237288 4.48872881,1.71101695 C5.26584746,1.73050847 5.26584746,2.21610169 5.26584746,2.21610169 L5.71330508,13.5271186 L5.57432203,15.9940678 Z M6.65398305,16.0940678 L6.78110169,0.837288136 L1.20483051,0.312711864 L1.10737288,1.28389831 L1.90398305,1.38050847 C1.90398305,1.38050847 2.70059322,1.38050847 2.56415254,2.60508475 C2.42855932,3.82881356 1.10737288,15.8940678 1.10737288,15.8940678 L0.531101695,15.8940678 L0.531101695,16.3805085 L-0.000254237288,16.3805085 L-0.000254237288,17.5652542 L7.11076271,17.5652542 L6.65398305,16.0940678 Z" id="Fill-37" fill="#152B50" mask="url(#mask-2)"></path>
                </g>
                <path d="M86.478061,16.9491525 C86.478061,16.9491525 79.9039568,9.48620233 79.6806581,8.21370164 C79.5093825,7.2346534 80.504222,7.72636094 80.8811885,7.95169051 C81.2589554,8.17614671 85.9402234,10.8731146 88.1355932,10.3866472" id="Fill-40" fill="#152B50"></path>
                <path d="M53.476706,95.9410471 C53.7727957,95.5652853 54.1494084,95.4581638 53.6587215,93.9626486 C52.1866607,89.4735921 45.8505087,92.0294419 44.5202019,92.5608645 C41.8990112,93.6094827 39.482483,94.8154354 36.4737753,95.8866495 C32.8619841,97.1712695 29.8683746,97.3302778 27.6883826,97.3896967 C25.4807109,97.4499525 22.2178526,97.1654113 22.2178526,97.1654113 C22.2178526,97.1654113 21.3362937,93.4839498 20.9999425,91.7172834 C20.5545498,89.3689813 20.5184822,87.1855457 20.3389831,82.1173641 C41.1273326,90.3389322 62.479343,90.4335003 86.2084589,88.1864614 C80.8972973,84.3342751 77.3308003,81.7474605 73.7643033,79.1606459 C74.1660794,78.4802576 74.5670167,77.7990324 74.9679541,77.1186441 C79.8211412,80.0669934 84.8219539,82.8220221 89.3169815,86.2398646 C89.8118623,86.6156264 93.4555272,90.9280999 86.2705287,92.9265837 C75.8176393,95.8339257 65.134085,97.9462259 54.4513696,99.8919859 C52.672315,100.215024 48.331623,99.927972 48.4867975,97.4332148 C48.5295754,96.4239303 49.0219398,95.9025503 49.404424,95.4765753 C51.0568227,93.6337524 53.3240479,94.9861601 53.476706,95.9410471" id="Fill-42" fill="#152B50"></path>
                <path d="M18.6440678,81.0560064 C18.6440678,81.0560064 61.4517054,42.970115 78.8385137,12.9035505 C79.8360207,11.1782467 81.0763697,9.70713602 80.2238933,12.8959501 C75.8797208,29.1431942 62.1389143,79.0866435 56.0577474,84.2194856 C56.0577474,84.2194856 32.7348027,86.6524764 18.6440678,81.0560064" id="Fill-44" fill="#FEFEFE"></path>
                <path d="M87.8310022,20.3389831 C87.8310022,20.3389831 86.4103499,12.4854882 88.1654169,10.9206726 C90.2426935,9.06822515 93.2353389,9.33542865 93.2353389,9.33542865 C93.2353389,9.33542865 94.142571,16.7247902 94.0628322,16.9029258 C93.9839071,17.0810615 89.2923374,17.2183404 87.8310022,20.3389831" id="Fill-46" fill="#FEC22D"></path>
                <path d="M174.163754,0 C173.108677,0 171.153334,0.123711187 170.421342,0.178879689 C169.688509,0.234048191 166.160646,0.706324006 164.090036,1.20869173 C156.015412,3.16968122 147.957615,5.20339283 139.909073,7.27304755 C138.128735,7.73111329 136.47292,7.78711768 134.805325,6.93451356 C133.693035,6.36611081 132.528579,6.37614144 131.327945,6.78238223 C129.502173,7.40093817 127.65116,7.94510021 125.806877,8.51015942 C124.18051,9.0091836 122.549094,9.49399771 120.901693,9.99051423 C120.773804,9.70464108 120.687985,9.55334564 120.63582,9.39118368 C120.160446,7.92169539 119.833153,7.67845245 118.29513,7.72693386 C117.770956,7.7428157 117.236687,7.755354 116.725975,7.86067569 C112.641967,8.69906974 108.561325,9.55501741 104.483206,10.4176522 C103.223676,10.6842999 102.543008,11.4600025 102.886287,12.6603354 C102.917417,12.7698365 102.949389,12.9244755 102.982203,13.1108781 C102.375575,14.628012 101.017605,17.0387083 98.5507091,18.159632 C93.5050156,20.4533043 92.053653,17.7818113 92.053653,17.7818113 L87.2881356,18.2281747 L87.6036492,20.7592387 C89.2560991,25.2220362 94.7342566,24.8893534 97.9474471,24.0994407 C102.935086,22.8740313 105.715813,18.6394308 105.715813,18.6394308 L105.705716,18.6076671 C105.72002,18.593457 105.734323,18.5834264 105.749467,18.5683804 C106.491555,17.8227698 107.391821,17.1941832 108.310597,16.6684107 C109.308461,16.0983361 110.398876,15.6770494 111.472463,15.2507473 C113.3504,14.5059725 115.246006,13.8071715 117.187887,13.0682479 C117.333444,13.4619504 117.437774,13.6767732 117.493304,13.9041343 C117.90221,15.6068349 118.660284,15.996358 120.287493,15.3067517 C120.867196,15.061837 121.424183,14.7650973 122.003045,14.5143314 C124.37739,13.4878629 126.734908,12.4162566 129.143749,11.4750485 C130.189572,11.0663 131.248015,11.220939 132.195397,12.0267335 C132.611875,12.3819852 133.284129,12.6177052 133.834385,12.6068387 C135.228534,12.5800903 136.689993,12.6126899 137.998323,12.2148079 C142.454216,10.8573284 146.852897,9.31428213 151.281025,7.86151157 C155.970819,6.32264471 160.60929,4.5722986 165.383221,3.35691977 C169.206404,2.38394801 173.199544,2.07216238 177.118644,1.46698063 L177.118644,1.25717314 C176.1334,0.838394057 175.148998,0.418779085 174.163754,0" id="Fill-48" fill="#FEC22D"></path>
                <polygon id="Fill-50" fill="#152B50" points="104.508205 36.4550115 104.508205 42.874192 115.329245 42.874192 115.329245 47.1266486 104.508205 47.1266486 104.508205 57.6271186 100 57.6271186 100 32.2033898 116.101695 32.2033898 116.101695 36.4550115"></polygon>
                <path d="M125.694862,52.0691259 C125.694862,52.0691259 125.694862,52.1991728 125.737864,52.2425218 C126.25304,53.0211036 127.153544,53.8430344 127.626561,54.1031284 C127.712565,54.1464774 127.797725,54.1464774 127.840726,54.1464774 L134.022837,54.1464774 C134.022837,54.1464774 134.152685,54.1464774 134.238689,54.1031284 C134.710863,53.8430344 135.61221,53.0211036 136.127386,52.2425218 C136.170387,52.1558238 136.170387,52.0691259 136.170387,52.0691259 L136.170387,38.6955382 C136.170387,38.6955382 136.170387,38.5221423 136.127386,38.4787933 C135.61221,37.7002115 134.710863,36.8349317 134.238689,36.5748377 C134.152685,36.5314887 134.067525,36.5314887 134.022837,36.5314887 L127.840726,36.5314887 C127.840726,36.5314887 127.669563,36.5314887 127.626561,36.5748377 C127.153544,36.8349317 126.25304,37.7002115 125.737864,38.4787933 C125.694862,38.5654912 125.694862,38.6955382 125.694862,38.6955382 L125.694862,52.0691259 Z M139.990784,54.5791172 C139.432606,55.3152001 137.75976,57.1758066 136.856727,57.6951445 C136.170387,58.1277844 135.096191,58.4745763 134.195687,58.4745763 L127.669563,58.4745763 C126.725214,58.4745763 125.694862,58.1277844 125.008523,57.6951445 C124.10549,57.1758066 122.388799,55.3152001 121.873623,54.5791172 C121.358447,53.8005354 121.186441,52.9344057 121.186441,52.1124749 L121.186441,38.5654912 C121.186441,37.7435604 121.358447,36.8774307 121.873623,36.0988489 C122.388799,35.362766 124.10549,33.5021595 125.008523,32.9828216 C125.694862,32.5501817 126.725214,32.2033898 127.669563,32.2033898 L134.195687,32.2033898 C135.096191,32.2033898 136.170387,32.5501817 136.856727,32.9828216 C137.75976,33.5021595 139.432606,35.362766 139.990784,36.0988489 C140.50596,36.8774307 140.677966,37.7435604 140.677966,38.5654912 L140.677966,52.1124749 C140.677966,52.9344057 140.50596,53.8005354 139.990784,54.5791172 Z" id="Fill-52" fill="#152B50"></path>
                <path d="M164.562418,54.5791172 C164.043128,55.358549 162.31358,57.1758066 161.403335,57.6951445 C160.711516,58.0852854 159.628742,58.4745763 158.721048,58.4745763 L151.191774,58.4745763 C148.636971,58.4745763 146.819033,56.3972248 145.695463,54.8817102 C145.348704,54.4057213 145.262014,54.1898263 144.915254,53.5404415 L149.199606,52.1124749 C149.199606,52.1124749 150.065655,53.3236966 151.103384,54.1031284 C151.103384,54.1031284 151.191774,54.1464774 151.406799,54.1464774 L158.503473,54.1464774 C158.677703,54.1464774 158.764393,54.1031284 158.764393,54.1031284 C159.412867,53.7571864 160.711516,52.4584168 160.711516,52.1124749 L160.711516,49.5582845 C160.711516,49.1689936 160.408951,48.8664007 160.191376,48.8230517 L148.940386,45.6203265 C146.732343,45.0142906 145.563729,42.8935902 145.563729,40.9029367 L145.563729,38.5654912 C145.563729,37.8294084 145.695463,36.8774307 146.213053,36.0988489 C146.732343,35.3194171 148.506936,33.5021595 149.41718,32.9828216 C150.109,32.5926807 151.148429,32.2033898 152.099468,32.2033898 L158.503473,32.2033898 C161.101621,32.2033898 162.876214,34.3240903 163.999783,35.7954059 C164.346543,36.2713948 164.562418,36.6615357 164.865832,37.3109205 L160.495641,38.5654912 C160.495641,38.5654912 159.499557,37.1375246 158.591863,36.5748377 C158.591863,36.5748377 158.548518,36.5314887 158.330943,36.5314887 L152.228653,36.5314887 C152.056123,36.5314887 151.970283,36.5748377 151.970283,36.5748377 C151.277614,36.9207797 150.109,38.1328513 150.109,38.4787933 L150.109,40.6428427 C150.109,41.0321336 150.36822,41.3355765 150.585794,41.3789255 L161.88013,44.6683487 C164.087323,45.2743846 165.254237,47.438434 165.254237,49.3857385 L165.254237,52.1124749 C165.254237,52.8477077 165.125052,53.7996855 164.562418,54.5791172" id="Fill-54" fill="#152B50"></path>
                <path d="M189.138689,54.5791172 C188.619399,55.358549 186.889851,57.1758066 185.979607,57.6951445 C185.287787,58.0852854 184.205013,58.4745763 183.297319,58.4745763 L175.768045,58.4745763 C173.213242,58.4745763 171.395304,56.3972248 170.271735,54.8817102 C169.924975,54.4057213 169.838285,54.1898263 169.491525,53.5404415 L173.775877,52.1124749 C173.775877,52.1124749 174.641926,53.3236966 175.679655,54.1031284 C175.679655,54.1031284 175.768045,54.1464774 175.98307,54.1464774 L183.079744,54.1464774 C183.253974,54.1464774 183.340664,54.1031284 183.340664,54.1031284 C183.989138,53.7571864 185.287787,52.4584168 185.287787,52.1124749 L185.287787,49.5582845 C185.287787,49.1689936 184.985222,48.8664007 184.767648,48.8230517 L173.516657,45.6203265 C171.308614,45.0142906 170.14,42.8935902 170.14,40.9029367 L170.14,38.5654912 C170.14,37.8294084 170.271735,36.8774307 170.789324,36.0988489 C171.308614,35.3194171 173.083207,33.5021595 173.993452,32.9828216 C174.685271,32.5926807 175.7247,32.2033898 176.675739,32.2033898 L183.079744,32.2033898 C185.677892,32.2033898 187.452485,34.3240903 188.576054,35.7954059 C188.922814,36.2713948 189.138689,36.6615357 189.442104,37.3109205 L185.071912,38.5654912 C185.071912,38.5654912 184.075828,37.1375246 183.168134,36.5748377 C183.168134,36.5748377 183.124789,36.5314887 182.907214,36.5314887 L176.804924,36.5314887 C176.632394,36.5314887 176.546554,36.5748377 176.546554,36.5748377 C175.853885,36.9207797 174.685271,38.1328513 174.685271,38.4787933 L174.685271,40.6428427 C174.685271,41.0321336 174.944491,41.3355765 175.162066,41.3789255 L186.456401,44.6683487 C188.663594,45.2743846 189.830508,47.438434 189.830508,49.3857385 L189.830508,52.1124749 C189.830508,52.8477077 189.701324,53.7996855 189.138689,54.5791172" id="Fill-56" fill="#152B50"></path>
                <path d="M205.580397,38.6659883 L199.351646,48.316468 L205.580397,48.316468 L205.580397,38.6659883 Z M210.090609,52.5680897 L210.090609,57.6271186 L205.580397,57.6271186 L205.580397,52.5680897 L194.067797,52.5680897 L194.067797,48.7414632 L204.893657,32.2033898 L210.090609,32.2033898 L210.090609,48.316468 L212.711864,48.316468 L212.711864,52.5680897 L210.090609,52.5680897 Z" id="Fill-58" fill="#152B50"></path>
                <path d="M221.521575,52.1229554 C221.521575,52.6414377 222.914855,53.7649576 223.524682,54.1103296 C223.570013,54.1103296 223.612778,54.1536072 223.743639,54.1536072 L229.664866,54.1536072 C229.797437,54.1536072 229.883822,54.1103296 229.883822,54.1103296 C230.493649,53.7649576 231.88693,52.511605 231.88693,51.9931227 L231.88693,47.8019863 L226.269333,47.8019863 L226.269333,43.4810173 L236.459352,43.4810173 L236.459352,52.2095106 C236.459352,52.2095106 236.764693,55.0607392 237.288136,58.2581884 L232.801243,58.2581884 L232.583997,57.2212237 C231.97417,57.6539995 230.884521,58.4745763 229.883822,58.4745763 L223.524682,58.4745763 C222.567604,58.4745763 221.521575,58.1292042 220.825362,57.6964285 C219.911049,57.1787947 218.168807,55.4502374 217.64622,54.6720895 C217.122778,53.8947903 216.949153,52.9876584 216.949153,52.166233 L216.949153,38.5117331 C216.949153,37.6911563 217.122778,36.8273019 217.64622,36.0491541 C218.168807,35.3151325 219.911049,33.4567424 220.825362,32.9382601 C221.521575,32.5063329 222.567604,32.2033898 223.524682,32.2033898 L229.883822,32.2033898 C232.453137,32.2033898 234.282619,34.1916126 235.415033,35.7903372 C235.762284,36.265542 236.112101,36.7840244 236.328491,37.3025067 L231.93055,38.5558593 C231.93055,38.5558593 230.971761,37.2592291 229.883822,36.5676365 C229.841057,36.5252075 229.708486,36.5252075 229.664866,36.5252075 L223.743639,36.5252075 C223.612778,36.5252075 223.524682,36.5676365 223.524682,36.5676365 C223.046571,36.8273019 222.087782,37.6054497 221.565195,38.4260265 C221.521575,38.5117331 221.521575,38.5982883 221.521575,38.5982883 L221.521575,52.1229554 Z" id="Fill-60" fill="#152B50"></path>
                <mask id="mask-4" fill="white">
                    <use xlink:href="#path-3"></use>
                </mask>
                <g id="Clip-63"></g>
                <polygon id="Fill-62" fill="#152B50" mask="url(#mask-4)" points="242.372881 49.1525424 251.694915 49.1525424 251.694915 44.9152542 242.372881 44.9152542"></polygon>
                <polygon id="Fill-64" fill="#152B50" mask="url(#mask-4)" points="269.906303 57.6271186 261.196796 40.7483811 261.196796 57.6271186 256.779661 57.6271186 256.779661 32.2033898 261.533907 32.2033898 270.15831 49.2942074 270.15831 32.2033898 274.576271 32.2033898 274.576271 57.6271186"></polygon>
                <path d="M289.428875,37.942912 L285.989543,47.9766389 L292.824017,47.9766389 L289.428875,37.942912 Z M296.094092,57.6271186 L294.224763,52.2274256 L284.588796,52.2274256 L282.719467,57.6271186 L277.966102,57.6271186 L286.838328,32.2033898 L292.017754,32.2033898 L300.847458,57.6271186 L296.094092,57.6271186 Z" id="Fill-65" fill="#152B50" mask="url(#mask-4)"></path>
                <path d="M113.970575,79.5439191 C113.595336,80.0943286 112.316775,81.3163385 111.69338,81.6832782 C111.195351,81.9584829 110.509273,82.2033898 109.915931,82.2033898 L104.708092,82.2033898 C103.05601,82.2033898 101.714766,80.8585056 100.842356,79.727389 C100.592483,79.3907471 100.37438,78.9329142 100,78.1384394 L102.464385,77.496295 L102.744312,78.0467045 C103.149605,78.7494443 104.053785,79.5136214 104.521761,79.7576867 C104.646268,79.8191239 104.739863,79.8191239 104.801687,79.8191239 L109.791424,79.8191239 C109.885019,79.8191239 109.979473,79.7888261 110.041297,79.7576867 C110.540185,79.5136214 111.848799,78.4128025 111.848799,77.8935324 L111.848799,76.0293781 C111.848799,75.5404058 111.507048,75.0817313 111.132668,74.9899964 L102.649858,72.8506374 C101.215878,72.4836977 100.436205,71.0773764 100.436205,69.7333337 L100.436205,67.8683378 C100.436205,67.3490678 100.530659,66.7380628 100.87241,66.2490905 C101.247649,65.6986811 102.52621,64.4455317 103.149605,64.0794337 C103.648492,63.8033874 104.333712,63.559322 104.927053,63.559322 L109.511497,63.559322 C111.132668,63.559322 112.473053,64.9042063 113.346321,66.0353229 C113.595336,66.3408254 113.845209,66.7986583 114.219589,67.5939747 L111.725151,68.2967146 L111.412594,67.6857096 C111.069985,67.0132675 110.103121,66.2187927 109.635146,65.9738858 C109.635146,65.9738858 109.542409,65.9427464 109.417043,65.9427464 L105.082473,65.9427464 C104.957966,65.9427464 104.896141,65.9738858 104.801687,66.0041835 C104.333712,66.2187927 102.994185,67.4105049 102.994185,67.8683378 L102.994185,69.6104595 C102.994185,70.069134 103.305883,70.4966692 103.680263,70.5884041 L112.130443,72.7892002 C113.533511,73.1561399 114.40678,74.5010241 114.40678,75.8459083 L114.40678,77.9238302 C114.40678,78.4439419 114.312326,79.0549468 113.970575,79.5439191" id="Fill-66" fill="#FEC22D" mask="url(#mask-4)"></path>
                <path d="M124.152542,66.1690979 L120.968787,75.6472905 L127.336298,75.6472905 L124.152542,66.1690979 Z M129.509378,82.2033898 L128.132026,78.0397277 L120.173058,78.0397277 L118.764518,82.2033898 L116.101695,82.2033898 L122.499552,63.559322 L125.805533,63.559322 L132.20339,82.2033898 L129.509378,82.2033898 Z" id="Fill-67" fill="#FEC22D" mask="url(#mask-4)"></path>
                <polygon id="Fill-68" fill="#FEC22D" mask="url(#mask-4)" points="145.484315 82.2033898 137.999339 67.9717799 137.999339 82.2033898 135.59322 82.2033898 135.59322 63.559322 138.475329 63.559322 145.899784 77.9466557 145.899784 63.559322 148.305085 63.559322 148.305085 82.2033898"></polygon>
                <path d="M169.546667,67.9717799 C169.546667,67.8477143 169.546667,67.7852537 169.515754,67.7227931 C169.212474,67.0708069 168.211566,66.2314388 167.756229,66.01411 C167.694403,65.9833075 167.665161,65.9833075 167.544851,65.9833075 L161.808429,65.9833075 L161.808429,79.7794043 L167.544851,79.7794043 C167.665161,79.7794043 167.725316,79.7486018 167.756229,79.7486018 C168.241644,79.499615 169.546667,78.3505107 169.546667,77.8217344 L169.546667,67.9717799 Z M171.609473,79.499615 C171.245203,80.0591937 170.031247,81.3024168 169.424687,81.6754692 C168.939272,81.954403 168.272557,82.2033898 167.694403,82.2033898 L159.322034,82.2033898 L159.322034,63.559322 L167.694403,63.559322 C168.241644,63.559322 168.939272,63.7458483 169.424687,64.0564401 C170.031247,64.4294926 171.245203,65.7659788 171.609473,66.2938994 C171.943666,66.7910175 172.033898,67.3505962 172.033898,67.9101749 L172.033898,77.8841951 C172.033898,78.4437738 171.943666,79.0024969 171.609473,79.499615 Z" id="Fill-69" fill="#FEC22D" mask="url(#mask-4)"></path>
                <polygon id="Fill-70" fill="#FEC22D" mask="url(#mask-4)" points="177.118644 82.2033898 179.661017 82.2033898 179.661017 63.559322 177.118644 63.559322"></polygon>
                <polygon id="Fill-71" fill="#FEC22D" mask="url(#mask-4)" points="183.898305 82.2033898 183.898305 63.559322 194.915254 63.559322 194.915254 65.9833075 186.352653 65.9833075 186.352653 71.669791 194.437081 71.669791 194.437081 74.0929209 186.352653 74.0929209 186.352653 79.7794043 194.915254 79.7794043 194.915254 82.2033898"></polygon>
                <path d="M211.060081,82.0502178 C210.998117,81.6529804 210.871606,81.1943059 210.841484,80.9805383 C210.18397,81.4998083 209.55916,82.2033898 208.496294,82.2033898 L203.684568,82.2033898 C203.089018,82.2033898 202.371261,81.9584829 201.87038,81.6832782 C201.24557,81.3163385 199.996811,80.0943286 199.619859,79.5439191 C199.277332,79.0549468 199.152542,78.4742396 199.152542,77.9238302 L199.152542,67.8683378 C199.152542,67.31877 199.277332,66.7380628 199.619859,66.2490905 C199.996811,65.7289788 201.24557,64.4455317 201.87038,64.0785921 C202.371261,63.8033874 203.089018,63.559322 203.684568,63.559322 L208.496294,63.559322 C210.18397,63.559322 211.465433,64.9042063 212.372527,66.0656207 C212.621246,66.3711232 212.871687,66.7986583 213.246917,67.5939747 L210.747676,68.2967146 L210.434411,67.6857096 C210.090163,67.0132675 209.18393,66.2490905 208.714892,66.0041835 C208.652927,65.9738858 208.528998,65.9427464 208.402487,65.9427464 L203.808497,65.9427464 C203.684568,65.9427464 203.589899,65.9738858 203.527935,66.0041835 C203.089018,66.2179511 202.088978,67.0435653 201.776573,67.6857096 C201.746451,67.7463052 201.714608,67.8380401 201.714608,67.9600727 L201.714608,77.8320953 C201.714608,78.352207 203.089018,79.5439191 203.589899,79.7879845 C203.652725,79.8191239 203.714689,79.8191239 203.84034,79.8191239 L208.340522,79.8191239 C208.464451,79.8191239 208.496294,79.8191239 208.621084,79.7576867 C209.121965,79.5136214 210.465393,78.3210676 210.465393,77.8017975 L210.465393,74.0120518 L206.183808,74.0120518 L206.183808,71.6277858 L213.028319,71.6277858 L213.028319,77.7714997 C213.028319,78.9329142 213.246917,80.1557657 213.559322,82.0502178 L211.060081,82.0502178 Z" id="Fill-72" fill="#FEC22D" mask="url(#mask-4)"></path>
                <path d="M228.020441,67.9299723 C228.020441,67.8070924 227.989539,67.716195 227.960308,67.6547551 C227.625396,67.0437226 226.715873,66.2180711 226.291596,66.0042939 C226.230627,65.9739948 226.139592,65.942854 226.019324,65.942854 L221.469205,65.942854 C221.347267,65.942854 221.255396,65.9739948 221.195262,66.0042939 C220.710852,66.2483703 219.437186,67.4098371 219.437186,67.9299723 L219.437186,77.8941795 C219.437186,78.3528747 220.740083,79.5446407 221.195262,79.758418 C221.255396,79.7887171 221.347267,79.8198579 221.469205,79.8198579 L226.019324,79.8198579 C226.139592,79.8198579 226.230627,79.7887171 226.291596,79.758418 C226.777677,79.5143416 228.020441,78.413473 228.020441,77.8941795 L228.020441,67.9299723 Z M230.053296,79.5446407 C229.689152,80.095075 228.47562,81.3171401 227.868437,81.6840963 C227.382356,81.9593135 226.685806,82.2033898 226.10869,82.2033898 L221.318035,82.2033898 C220.740083,82.2033898 220.072766,81.9593135 219.588355,81.6840963 C218.982007,81.3171401 217.738408,80.095075 217.373429,79.5446407 C217.041024,79.0556464 216.949153,78.4446138 216.949153,77.9244786 L216.949153,67.8685324 C216.949153,67.3492388 217.041024,66.7373646 217.373429,66.2483703 C217.738408,65.6987776 218.982007,64.4455717 219.588355,64.0786155 C220.072766,63.8033984 220.740083,63.559322 221.318035,63.559322 L226.10869,63.559322 C226.685806,63.559322 227.382356,63.8033984 227.868437,64.0786155 C228.47562,64.4455717 229.689152,65.7290768 230.053296,66.2483703 C230.385702,66.7373646 230.508475,67.3180981 230.508475,67.8685324 L230.508475,77.9244786 C230.508475,78.4749129 230.385702,79.0556464 230.053296,79.5446407 Z" id="Fill-73" fill="#FEC22D" mask="url(#mask-4)"></path>
                <path d="M251.318061,72.8045598 L245.134524,76.1326757 C244.690515,76.3787628 244.39478,76.748742 244.39478,77.1806673 L244.39478,79.800222 L253.152754,79.800222 L253.152754,82.2033898 L241.969433,82.2033898 L241.969433,77.0567751 C241.969433,75.6396529 242.85745,74.6230586 244.070532,73.9755949 L250.312727,70.6474791 C250.697263,70.4319407 250.962853,70.0619615 250.962853,69.5994875 L250.962853,67.6579451 C250.962853,67.5035042 250.934339,67.3804607 250.904195,67.3193632 C250.697263,66.8874379 249.868718,65.9624898 249.306578,65.9624898 L246.0812,65.9624898 C245.93374,65.9624898 245.845753,65.9938872 245.726807,66.0558332 C245.282798,66.3019203 244.483582,67.0418788 244.159333,67.7198912 L243.863599,68.3359575 L241.525424,67.6273964 C241.850487,66.8263404 242.087563,66.3944151 242.32464,66.0558332 C243.15237,64.9153468 244.424924,63.559322 245.992398,63.559322 L249.336722,63.559322 C250.016178,63.559322 250.786879,63.8062577 251.318061,64.2067857 C251.733555,64.5148188 252.650087,65.4694671 252.887164,65.8394463 C253.211412,66.3638664 253.389831,66.9799327 253.389831,67.595999 L253.389831,69.6919823 C253.389831,71.1091045 252.413011,72.2190422 251.318061,72.8045598" id="Fill-74" fill="#FEC22D" mask="url(#mask-4)"></path>
                <path d="M266.935769,67.630889 C266.935769,67.4774677 266.904026,67.3552364 266.873998,67.2945422 C266.656086,66.8654682 265.782719,65.9466259 265.191609,65.9466259 L261.047834,65.9466259 C260.455867,65.9466259 259.583358,66.8654682 259.365445,67.2945422 C259.333702,67.3552364 259.333702,67.5693519 259.333702,67.630889 L259.333702,78.1621699 C259.333702,78.2228641 259.333702,78.4066325 259.365445,78.4681697 C259.583358,78.8964007 260.455867,79.815243 261.047834,79.815243 L265.191609,79.815243 C265.782719,79.815243 266.656086,78.8964007 266.873998,78.4681697 C266.904026,78.4066325 266.935769,78.3147483 266.935769,78.1621699 L266.935769,67.630889 Z M268.961328,79.9374743 C268.711672,80.3050112 267.746507,81.2542005 267.309824,81.5602003 C266.749599,81.9580842 265.938861,82.2033898 265.221636,82.2033898 L261.016091,82.2033898 C260.300582,82.2033898 259.520729,81.9580842 258.959647,81.5602003 C258.523821,81.2542005 257.55694,80.3050112 257.309,79.9374743 C256.965831,79.4477061 256.779661,78.8660536 256.779661,78.2228641 L256.779661,67.5693519 C256.779661,66.9573524 256.965831,66.3453529 257.309,65.8243946 C257.55694,65.4568577 258.523821,64.5085114 258.959647,64.2025116 C259.520729,63.8037846 260.300582,63.559322 261.016091,63.559322 L265.221636,63.559322 C265.938861,63.559322 266.749599,63.8037846 267.309824,64.2025116 C267.746507,64.5085114 268.711672,65.4568577 268.961328,65.8243946 C269.30364,66.3453529 269.491525,66.9573524 269.491525,67.5693519 L269.491525,78.2228641 C269.491525,78.8660536 269.30364,79.4477061 268.961328,79.9374743 Z" id="Fill-75" fill="#FEC22D" mask="url(#mask-4)"></path>
                <polygon id="Fill-76" fill="#FEC22D" mask="url(#mask-4)" points="274.576271 82.2033898 274.576271 79.9351281 278.572354 79.9351281 278.572354 65.9833075 275.133958 65.9833075 275.133958 63.559322 280.983601 63.559322 280.983601 79.9351281 284.745763 79.9351281 284.745763 82.2033898"></polygon>
                <path d="M290.65632,71.3096885 C290.65632,71.462612 290.686543,71.5541981 290.716765,71.6146953 C290.952828,72.0726257 291.725546,72.9884864 292.28834,72.9884864 L295.254237,72.9884864 C295.4029,72.9884864 295.491934,72.9573976 295.550745,72.927149 C296.20339,72.5910533 297.272616,71.8592049 297.569124,71.1878538 L297.569124,67.5874288 C297.569124,67.4345053 297.538901,67.3429192 297.510312,67.282422 C297.301205,66.8547402 296.441086,65.9388795 295.937104,65.9388795 L292.28834,65.9388795 C291.725546,65.9388795 290.924239,66.8547402 290.716765,67.282422 C290.686543,67.3429192 290.65632,67.4345053 290.65632,67.5874288 L290.65632,71.3096885 Z M290.507658,77.5652694 C290.597509,77.7786902 290.775577,78.1147858 290.775577,78.1147858 C291.101491,78.7852967 291.873392,79.4566479 292.377374,79.7624949 C292.467225,79.8229922 292.61507,79.8229922 292.703288,79.8229922 L295.937104,79.8229922 C296.054727,79.8229922 296.174801,79.8229922 296.263835,79.7624949 C296.678783,79.5179853 297.272616,78.9079717 297.510312,78.4802899 C297.538901,78.4500413 297.569124,78.2971178 297.569124,78.1450345 L297.569124,74.3000998 C296.945068,74.8798649 296.233612,75.2764578 295.343271,75.2764578 L292.258117,75.2764578 C291.576884,75.2764578 290.835205,75.063037 290.300184,74.6664441 C289.886053,74.3614373 288.967123,73.4455766 288.729426,73.0792323 C288.401879,72.5608047 288.224627,71.950791 288.224627,71.3407773 L288.224627,67.5563399 C288.224627,66.9463263 288.401879,66.3363126 288.729426,65.8170448 C288.967123,65.4507005 289.886053,64.5054314 290.300184,64.2004245 C290.835205,63.8029914 291.576884,63.559322 292.258117,63.559322 L295.967327,63.559322 C296.64856,63.559322 297.390239,63.8029914 297.924444,64.2004245 C298.339391,64.5054314 299.259955,65.4507005 299.496018,65.8170448 C299.823565,66.3363126 300,66.9463263 300,67.5563399 L300,78.2063719 C300,78.8163856 299.823565,79.4263992 299.496018,79.9448268 C299.259955,80.3111711 298.339391,81.2572805 297.924444,81.5622873 C297.390239,81.9588802 296.64856,82.2033898 295.967327,82.2033898 L292.584848,82.2033898 C292.050643,82.2033898 291.36941,82.0202177 290.894017,81.7152109 C290.21115,81.2875291 289.351031,80.3111711 288.9369,79.7314061 C288.699204,79.4263992 288.37329,78.9079717 288.135593,78.2063719 L290.507658,77.5652694 Z" id="Fill-77" fill="#FEC22D" mask="url(#mask-4)"></path>
                <path d="M59.3220339,83.4054637 C59.3220339,83.4054637 78.5593353,39.0027973 82.7461925,11.8227599 C82.7461925,11.8227599 83.5543612,7.69898459 84.1604877,5.08474576 L86.440678,5.08474576 C86.440678,5.08474576 75.9013771,56.6210404 62.8798438,83.8983051 L59.3220339,83.4054637 Z" id="Fill-78" fill="#152B50" mask="url(#mask-4)"></path>
                <path d="M22.0338983,80.4030084 C22.0338983,80.4030084 67.1560529,40.0621203 81.3559322,11.0169492 C81.3559322,11.0169492 64.1646761,77.5834794 57.3058288,83.3993865 C57.3058288,83.3993865 35.3185428,85.7051309 22.0338983,80.4030084" id="Fill-79" fill="#152B50" mask="url(#mask-4)"></path>
                <path d="M85.5932203,16.9491525 C85.5932203,16.9491525 84.870802,58.2478767 81.9585792,65.087172 C81.9585792,65.087172 79.6877637,71.0474303 74.462967,71.276671 C69.2381704,71.5059117 52.5423729,72.8813559 52.5423729,72.8813559 C52.5423729,72.8813559 75.1444623,66.6918569 85.5932203,16.9491525" id="Fill-80" fill="#152B50" mask="url(#mask-4)"></path>
                <path d="M80.0339959,7.62711864 L89.8305085,16.9257115 C89.4836307,17.2707964 81.9431082,23.7288136 81.9431082,23.7288136 C80.7114781,23.3097819 75.8217867,17.4628879 75.8217867,17.4628879 C73.7876271,15.2402353 74.8573809,13.8692453 74.8573809,13.8692453 L80.0339959,7.62711864" id="Fill-81" fill="#FEC22D" mask="url(#mask-4)"></path>
                <path d="M29.305118,68.8366718 L29.305118,65.5864792 C29.305118,65.5864792 29.3792438,65.3176361 29.6605418,65.3176361 C29.9427901,65.3176361 29.9342371,65.5664163 29.9342371,65.5664163 L30.097694,68.8366718 L29.305118,68.8366718 Z M31.315068,69.1472458 L31.0128627,69.1055149 L30.9967071,68.8430919 L30.6213264,68.8222265 L30.5072867,65.5728364 C30.5395979,65.1659605 31.1763197,65.1587378 31.1763197,65.1587378 L31.1763197,64.6210516 L28.0801414,64.4067797 L28.1038997,65.1105868 L28.3490851,65.1105868 C28.7415718,65.1250321 28.8071446,65.4628916 28.8071446,65.4628916 L28.7092605,68.8639574 L28.2759096,68.8639574 L28.2759096,69.181754 L27.9661017,69.181754 L27.9661017,69.4915254 L31.3559322,69.4915254 L31.315068,69.1472458 Z" id="Fill-82" fill="#152B50" mask="url(#mask-4)"></path>
            </g>
        </g>
    </g>
</svg>