<?xml version="1.0" encoding="UTF-8"?>
<svg width="126px" height="25px" viewBox="0 0 126 25" version="1.1" xmlns="http://www.w3.org/2000/svg" xmlns:xlink="http://www.w3.org/1999/xlink">
    <!-- Generator: Sketch 52.5 (67469) - http://www.bohemiancoding.com/sketch -->
    <title>Combined Shape</title>
    <desc>Created with Sketch.</desc>
    <g id="001_home_v1" stroke="none" stroke-width="1" fill="none" fill-rule="evenodd">
        <g id="001a_vd_home_v3-copy" transform="translate(-657.000000, -3952.000000)" fill="#1D2B4E">
            <path d="M783,3969.90393 C781.795417,3970.6272 781.083877,3971.11949 781.083877,3971.11949 L781.053759,3971.08604 C775.856584,3974.70396 768.24734,3977 759.743016,3977 C751.25243,3977 743.653754,3974.71139 738.457107,3971.10303 L738.443369,3971.11949 C738.443369,3971.11949 728.23501,3964.13051 719.720118,3964.13051 C711.203641,3964.13051 701.101487,3971.11949 701.101487,3971.11949 L701.075067,3971.08923 C695.877364,3974.70502 688.269706,3977 679.767495,3977 C670.441007,3977 662.167586,3974.25166 657,3970.01102 L657,3957.87998 C662.167586,3962.12115 670.441007,3964.86896 679.767495,3964.86896 C688.269706,3964.86896 695.877364,3962.57451 701.075067,3958.95819 L701.101487,3958.98898 C701.101487,3958.98898 711.203641,3952 719.720118,3952 C728.23501,3952 738.443369,3958.98898 738.443369,3958.98898 L738.457107,3958.97199 C743.653754,3962.58088 751.25243,3964.86896 759.743016,3964.86896 C768.24734,3964.86896 775.856584,3962.57292 781.053759,3958.955 L781.083877,3958.98898 C781.083877,3958.98898 781.795417,3958.49669 783,3957.77342 L783,3969.90393 Z" id="Combined-Shape" transform="translate(720.000000, 3964.500000) scale(1, -1) translate(-720.000000, -3964.500000) "></path>
        </g>
    </g>
</svg>