<?xml version="1.0" encoding="UTF-8"?>
<svg width="458px" height="259px" viewBox="0 0 458 259" version="1.1" xmlns="http://www.w3.org/2000/svg" xmlns:xlink="http://www.w3.org/1999/xlink">
    <!-- Generator: Sketch 52.5 (67469) - http://www.bohemiancoding.com/sketch -->
    <title>Group 62</title>
    <desc>Created with Sketch.</desc>
    <defs>
        <polygon id="path-1" points="0 0.789 18.6977944 0.789 18.6977944 44.4154286 0 44.4154286"></polygon>
        <polygon id="path-3" points="0.1647 0.383195489 182.856594 0.383195489 182.856594 60 0.1647 60"></polygon>
        <polygon id="path-5" points="0.0793802747 0.51721508 232.264947 0.51721508 232.264947 63.9781768 0.0793802747 63.9781768"></polygon>
    </defs>
    <g id="001_home_v1" stroke="none" stroke-width="1" fill="none" fill-rule="evenodd">
        <g id="001a_vd_home_v3-copy" transform="translate(-135.000000, -1018.000000)">
            <g id="Group-62" transform="translate(135.000000, 1018.000000)">
                <path d="M127.899547,178.980392 C127.916541,178.798092 128.088369,174.242713 128.088369,174.242713 C128.088369,174.242713 128.241314,173.786963 128.5,173.822999 C128.758686,173.859036 128.824773,174.242713 128.824773,174.242713 L128.888973,178.980392 L127.899547,178.980392 Z M131,173.384208 L131,172.400636 L126.226586,172 L126.162387,173.475358 C126.79494,173.422364 127.104607,173.859036 127.104607,173.859036 L127.00642,179.071542 L126,179.071542 C126,179.071542 126.016994,179.690514 126,179.81982 L130.869713,180 L130.903701,178.99947 L129.587613,178.980392 L129.636707,173.878113 C129.653701,173.403286 131,173.384208 131,173.384208 Z" id="Fill-1" fill="#FEFEFE"></path>
                <path d="M59.5125574,179.151794 L59.9230354,168.564092 C59.9230354,168.564092 59.9489603,167.601574 60.9989198,167.575964 C60.9989198,167.575964 61.5908723,167.627184 61.7442614,168.107376 C61.8976506,168.589703 62.0769646,179.151794 62.0769646,179.151794 L59.5125574,179.151794 Z M64.1034297,179.646925 L63.9997299,179.151794 L63.2306238,179.151794 L63.1290845,168.386955 C63.1290845,168.386955 63.6151769,167.296385 64.7709965,167.321995 L64.8206859,165.879285 L57,165 L57,166.790583 C57,166.790583 58.410748,166.893024 58.7953011,167.753101 C59.1798542,168.615313 58.2076695,179.416433 58.2076695,179.416433 L58.1039698,180.848473 L65,181 L65,179.646925 L64.1034297,179.646925 Z" id="Fill-3" fill="#FEFEFE"></path>
                <path d="M18.4855891,180.669756 L19.3986627,161.729816 C19.3986627,161.729816 19.7906387,160.271253 21.0564907,160.348245 C22.3200369,160.427375 22.5713627,161.026199 22.6589809,161.573695 C22.7419875,162.121191 23.1362693,180.669756 23.1362693,180.669756 L18.4855891,180.669756 Z M24.6234724,180.958474 L24.3975098,162.563892 C24.3975098,162.563892 24.3721466,161.417573 24.9324418,161.366245 L25.1837676,159.828551 L17.6808854,158 L16.7908693,181.005525 L16,181.005525 L16,182 L26,182 L26,180.958474 L24.6234724,180.958474 Z" id="Fill-5" fill="#FEFEFE"></path>
                <path d="M30.4015568,178.938385 L31.6217949,162.75057 C31.6217949,162.75057 31.8919414,161.719762 32.8214286,161.691431 C32.8214286,161.691431 34.1423993,161.776424 34.1423993,162.56315 C34.1423993,163.352055 34.8498168,178.938385 34.8498168,178.938385 L30.4015568,178.938385 Z M35.7953297,162.977216 C35.7953297,162.977216 35.7564103,161.711045 38,161.754631 L38,160.473205 L28,159 L28,161.140069 C28,161.140069 29.6918498,161.188014 29.8108974,161.91372 C29.9299451,162.639425 28.8768315,180.184943 28.8768315,180.184943 L30.3237179,180.81258 L36.9766484,181 L37.1735348,179.147598 L36.2371795,178.938385 L35.7953297,162.977216 Z" id="Fill-7" fill="#FEFEFE"></path>
                <path d="M43.0513387,180.492441 L43.7093569,166.939525 C43.7093569,166.939525 43.9367927,166.12095 44.7714601,166.097192 C45.6083356,166.071274 45.7341982,166.814255 45.7341982,166.814255 L46.2376484,180.455724 L46.2376484,181 L48.1388352,181 L47.4300304,166.913607 C47.4300304,166.913607 47.8606128,165.775378 49,165.725702 L49,164.511879 L41.8876622,163 L41,181 L42.9497654,181 L43.0513387,180.492441 Z" id="Fill-9" fill="#FEFEFE"></path>
                <path d="M110.299397,179.190994 L108.981916,179.190994 L109.089752,172.701544 C109.089752,172.701544 109.331212,172.194257 109.736772,172.222972 C110.139987,172.251686 110.365037,172.744616 110.365037,172.744616 L110.299397,179.190994 Z M111.642666,179.231673 L111.548895,172.675223 C111.548895,172.675223 111.71065,171.892756 112.82418,171.878399 L112.906229,170.330215 L106,170 C106,170.057429 106.051574,171.634327 106.051574,171.634327 C106.051574,171.634327 107.680844,171.509898 107.934025,172.002828 C108.191896,172.495758 108.201273,172.785295 108.201273,173.03176 C108.201273,173.278225 107.882451,179.298673 107.882451,179.298673 L106.229739,179.368066 L106.147689,181 L113,180.643463 L113,179.202958 L111.642666,179.231673 Z" id="Fill-11" fill="#FEFEFE"></path>
                <path d="M94.0389908,169 L98,169.347661 L97.7477064,169.75213 L97.733945,170.949631 C97.733945,170.949631 96.4426606,171.074607 96.4288991,171.674493 C96.412844,172.272108 96.5550459,179.663889 96.5550459,179.663889 L97.7775229,179.663889 L97.7775229,180.859118 L93.1261468,181 L93.3233945,179.761598 L95.206422,179.761598 L95.0940367,171.699489 C95.0940367,171.699489 94.9243119,170.754213 94.0389908,171.338194 C93.1536697,171.924446 93,170.377012 93,170.377012 L94.0389908,169 Z" id="Fill-13" fill="#FEFEFE"></path>
                <path d="M145.187011,179.98567 L145.241784,175.4 C145.241784,175.4 145.398279,174.801869 145.601721,174.801869 C145.801252,174.801869 145.91471,175.330218 145.91471,175.330218 L146.016432,179.98567 L145.187011,179.98567 Z M146.980829,179.686604 C146.980829,179.686604 146.744131,174.943925 146.777387,174.931464 C146.812598,174.916511 146.980829,174.201246 147.575509,174.201246 L147.630282,173 L143.594679,173 C143.582942,173.04486 143.594679,174.071651 143.594679,174.071651 C143.594679,174.071651 144.445618,174.001869 144.445618,174.530218 C144.445618,175.056075 144.324335,179.98567 144.324335,179.98567 L143,180.085358 L143,180.942679 L148,181 L148,179.716511 L146.980829,179.686604 Z" id="Fill-15" fill="#FEFEFE"></path>
                <path d="M158.185535,179.113099 L158.241689,175.099499 C158.241689,175.099499 158.398922,174.573372 158.601078,174.573372 C158.800988,174.573372 158.915544,175.036865 158.915544,175.036865 L159.014376,179.113099 L158.185535,179.113099 Z M159.980234,178.852541 C159.980234,178.852541 159.744385,174.69864 159.778077,174.686113 C159.81177,174.676092 159.980234,174.049749 160.573226,174.049749 L160.62938,173 L156.595238,173 C156.584007,173.037581 156.595238,173.939513 156.595238,173.939513 C156.595238,173.939513 157.446541,173.874374 157.446541,174.337867 C157.446541,174.798855 157.323001,179.113099 157.323001,179.113099 L156,179.200787 L156,179.949893 L161,180 L161,178.875089 L159.980234,178.852541 Z" id="Fill-17" fill="#FEFEFE"></path>
                <path d="M169.749529,179.110236 L169.792844,175.099738 C169.792844,175.099738 169.920904,174.574803 170.080979,174.574803 C170.242938,174.574803 170.333333,175.036745 170.333333,175.036745 L170.414313,179.110236 L169.749529,179.110236 Z M171.184557,178.847769 C171.184557,178.847769 170.996234,174.698163 171.022599,174.687664 C171.048964,174.677165 171.184557,174.049869 171.659134,174.049869 L171.704331,173 L168.47646,173 C168.467043,173.03937 168.47646,173.937008 168.47646,173.937008 C168.47646,173.937008 169.158192,173.87664 169.158192,174.338583 C169.158192,174.7979 169.060264,179.110236 169.060264,179.110236 L168,179.199475 L168,179.947507 L172,180 L172,178.874016 L171.184557,178.847769 Z" id="Fill-19" fill="#FEFEFE"></path>
                <path d="M176.4275,81.7840736 L57.9452555,123.240563 C57.9452555,123.240563 27.3370335,132.146447 20.1359971,139.863297 C12.9349607,147.582305 20.1359971,151.44073 20.1359971,151.44073 C20.1359971,151.44073 36.7500816,161.047949 75.050171,165.391914 C110.248208,169.384132 158.10096,172.536906 179.213238,173.548987 L179.267775,174 C179.267775,174 164.119639,173.930945 140.699365,172.899443 C123.845318,172.154948 110.795758,171.28745 87.5543638,168.924488 C44.9545947,164.595629 24.7389013,159.852442 24.7389013,159.852442 C24.7389013,159.852442 -1.06790274,153.320309 1.13320168,140.260361 C3.33212462,127.198254 38.3403741,113.743399 38.3403741,113.743399 L203,42 L176.4275,81.7840736 Z" id="Fill-21" fill="#FEFEFE"></path>
                <path d="M218,39.3619274 L56.1950573,109.255438 L26.5747839,122.560754 C26.5747839,122.560754 11.3387136,131.853906 8.79394955,135.744818 C6.03676055,139.964845 4.61481402,141.445859 5.01148508,148 C5.01148508,148 -3.56354611,138.364742 14.6963282,126.990808 C30.9511712,116.796921 36.3159847,115.393855 52.5751629,108.333051 C74.9209659,98.7346023 212.4336,38 212.4336,38 L218,39.3619274 Z" id="Fill-23" fill="#FEFEFE"></path>
                <path d="M8,181 L10.2888597,157.50246 C10.2888597,157.50246 10.4429839,155.565094 9.17548472,155.131227 L8.57739073,155.131227 L9.19848833,150 L14.3581991,150.429571 L13.9395334,155.330978 L15,180.914086 L12.51791,180.896903 L12.1544528,158.66445 L11.5310549,158.567796 L10.1669405,181 L8,181 Z" id="Fill-25" fill="#FEFEFE"></path>
                <path d="M43.8564695,180.745011 L45.4118124,148.698448 L46.5915752,129.800443 C46.5915752,129.800443 46.9936667,126.97561 48.4407541,127.137472 C49.8878415,127.299335 50.5329553,129.478936 50.5329553,129.478936 L51.0145813,134.239468 L52.5456219,180.815965 L43.8564695,180.745011 Z M61.3916341,184.288248 L61.3916341,182.674058 L59.5424553,182.674058 L59.5424553,180.576497 L57.1276972,180.576497 L54.8764268,128.993348 C54.8764268,128.993348 54.8764268,127.05765 56.6460711,126.97561 L59.1381545,126.815965 L59.5424553,124.392461 L58.49525,124.232816 L58.6565285,121 L38.0659106,122.616408 L38.0659106,124.878049 C38.0659106,124.878049 42.3298476,125.039911 42.4093821,127.137472 L39.1926504,180.815965 L36.2962663,180.815965 L36.2962663,182.674058 L34.3675528,182.674058 L34.3675528,184.450111 L33,184.450111 L33,188 L63,187.59867 L63,184.288248 L61.3916341,184.288248 Z" id="Fill-27" fill="#FEFEFE"></path>
                <polygon id="Fill-29" fill="#FEFEFE" points="192 67 86 107.415513 92.2676796 110 192 74.7491471"></polygon>
                <path d="M92.898883,180.188213 L95.7514362,114.401412 L95.7514362,112.74828 C96.9487234,112.14992 98.4491489,115.001955 98.4491489,115.001955 L98.7501064,118.004672 L100.850266,180.188213 L92.898883,180.188213 Z M110.936702,182.090297 L110.936702,179.987304 L107.999096,179.886849 L105.000426,114.200503 C105.000426,114.200503 104.599149,110.352657 109.399202,110.352657 L109.998936,107.491887 L110.020745,105.915188 L108.461436,105.840939 L108.461436,104 L83.9704787,106.10081 L83.9704787,110.34829 C83.9704787,110.34829 88.6505851,110.147381 88.9995213,113.851096 L85.5995745,180.087758 L83,180.087758 L83,182.59257 L89.5076596,183.092659 L89.5076596,190 L124,187.785633 L124,181.788934 L110.936702,182.090297 Z" id="Fill-31" fill="#FEFEFE"></path>
                <path d="M87,97.3986325 L87,106.593624 C87,106.593624 35.2230525,123.178021 26.494619,127.303237 C17.7661854,131.428454 9.07861932,135.183129 6.08023677,140.117967 C6.08023677,140.117967 4.16591793,144.832194 4.45629213,148 C4.45629213,148 1.09655501,137.847599 12.61043,130.929401 C19.5428454,126.765631 23.0165813,124.358184 25.8536448,122.835324 C38.7677688,115.902134 87,96 87,96 L87,97.3986325 Z" id="Fill-33" fill="#FEFEFE"></path>
                <path d="M17.7898486,180.435261 L20.0680321,140.259487 C20.0680321,140.259487 22.6646483,136.467109 23.7759573,136.588604 C24.882992,136.710099 24.8808549,138.074747 24.8808549,138.074747 L26.590561,180.435261 L17.7898486,180.435261 Z M32.3522707,181.84981 L32.3522707,180.305088 L29.6317008,180.305088 L27.9861086,137.81657 C27.9861086,137.81657 28.490472,135.952925 29.7577916,135.824921 L31.8457703,135.759835 L31.9739982,133.640182 L31.1512021,133.640182 L31.4033838,132.802734 L14.1182547,132 L14.0541407,133.959106 C14.0541407,133.959106 17.537667,134.733636 17.473553,136.853289 L15.0671416,180.179254 L11.4575245,180.179254 L11.4575245,182.0429 L10,182.0429 L10,185 L34,184.741823 L34,181.84981 L32.3522707,181.84981 Z" id="Fill-35" fill="#FEFEFE"></path>
                <g id="Group-39" transform="translate(0.000000, 139.000000)">
                    <mask id="mask-2" fill="white">
                        <use xlink:href="#path-1"></use>
                    </mask>
                    <g id="Clip-38"></g>
                    <path d="M14.6577142,40.4425714 L6.63994877,40.3868571 L9.3764179,5.604 C9.3764179,5.604 9.75747346,4.27757143 11.8031401,4.32685714 C13.8465784,4.37614286 13.8465784,5.604 13.8465784,5.604 L15.023171,34.2047143 L14.6577142,40.4425714 Z M17.4966895,40.6954286 L17.8309488,2.11542857 L3.16810926,0.789 L2.91184383,3.24685714 L5.00653519,3.49328571 C5.00653519,3.49328571 7.10122654,3.49328571 6.74245494,6.58757143 C6.38591173,9.684 2.91184383,40.1897143 2.91184383,40.1897143 L1.39653519,40.1897143 L1.39653519,41.4175714 L-0.000668518519,41.4175714 L-0.000668518519,44.4154286 L18.6977944,44.4154286 L17.4966895,40.6954286 Z" id="Fill-37" fill="#FEFEFE" mask="url(#mask-2)"></path>
                </g>
                <path d="M225.501458,44 C225.501458,44 207.659339,25.5873081 207.053306,22.4456224 C206.588464,20.0322561 209.288458,21.2454036 210.311546,21.799185 C211.336805,22.3551212 224.041766,29.0091168 230,27.808898" id="Fill-40" fill="#FEFEFE"></path>
                <g id="Group-44" transform="translate(52.000000, 199.000000)">
                    <mask id="mask-4" fill="white">
                        <use xlink:href="#path-3"></use>
                    </mask>
                    <g id="Clip-43"></g>
                    <path d="M86.2335214,49.4237218 C87.0025571,48.4468797 87.9807357,48.1656015 86.7062714,44.2691353 C82.8828786,32.5731955 66.42595,39.2322932 62.9707357,40.6190602 C56.1627,43.348985 49.8862357,46.491015 42.0717,49.2819925 C32.6907714,52.6311654 24.91545,53.0432707 19.2533429,53.1980827 C13.5193429,53.3550752 5.0447,52.6159023 5.0447,52.6159023 C5.0447,52.6159023 2.75502143,43.0219173 1.88141429,38.418985 C0.724592857,32.3006391 0.630914286,26.6118421 0.1647,13.4070301 C54.1584143,34.8299624 109.616129,35.0741729 171.247914,29.2196617 C157.4532,19.1830451 148.189914,12.4432707 138.926629,5.70349624 C139.970164,3.93078947 141.011521,2.15590226 142.052879,0.383195489 C154.658093,8.06492481 167.646736,15.2429699 179.3217,24.1479323 C180.607057,25.1269549 190.070771,36.365 171.409129,41.5697368 C144.259771,49.1446241 116.511307,54.6480827 88.7650214,59.7176316 C84.1442714,60.5614662 72.8701643,59.8135714 73.2732,53.3114662 C73.3843071,50.6818421 74.6631286,49.3234211 75.6565571,48.2135714 C79.9483429,43.412218 85.8370214,46.9358271 86.2335214,49.4237218" id="Fill-42" fill="#FEFEFE" mask="url(#mask-4)"></path>
                </g>
                <path d="M49,209.491367 C49,209.491367 159.021493,111.344848 203.707972,33.8622435 C206.271702,29.4160743 209.459568,25.6249697 207.268587,33.8404805 C196.103469,75.7123822 160.787714,204.418425 145.158282,217.643765 C145.158282,217.643765 85.215119,223.913669 49,209.491367" id="Fill-45" fill="#152B50"></path>
                <path d="M226.441311,55 C226.441311,55 222.669479,33.6165546 227.329182,29.3532162 C232.844351,24.3088593 240.789825,25.0364749 240.789825,25.0364749 C240.789825,25.0364749 243.198526,45.1582748 242.98682,45.6433519 C242.777273,46.1306542 230.321156,46.5044751 226.441311,55" id="Fill-47" fill="#FEC22D"></path>
                <g id="Group-51" transform="translate(225.000000, 0.000000)">
                    <mask id="mask-6" fill="white">
                        <use xlink:href="#path-5"></use>
                    </mask>
                    <g id="Clip-50"></g>
                    <path d="M224.629314,0.51656755 C221.902225,0.51656755 216.848193,0.836015988 214.956193,0.980631159 C213.062019,1.12092946 203.943449,2.34044545 198.591482,3.63766512 C177.720767,8.70135455 156.893546,13.9528279 136.090246,19.2971139 C131.488555,20.4799365 127.208721,20.6245516 122.898441,18.425106 C120.023471,16.9573699 117.013669,16.9832711 113.910354,18.0322707 C109.191228,19.6273545 104.406861,21.0324959 99.639891,22.4937567 C95.4361718,23.7801842 91.2194043,25.0320767 86.9613174,26.3163458 C86.6307611,25.5760024 86.4089404,25.1874841 86.2741082,24.7665892 C85.0453957,20.9720597 84.1994326,20.3461135 80.2240582,20.4691443 C78.8692123,20.512313 77.4882699,20.5425311 76.1682195,20.814494 C65.6121652,22.9815631 55.0648099,25.1896425 44.5239786,27.4171478 C41.2684341,28.1056887 39.5090917,30.1087168 40.3963744,33.20823 C40.4768387,33.490985 40.5594778,33.892454 40.6442916,34.3737851 C39.0763239,38.2891869 35.566338,44.516273 29.1900811,47.4107348 C16.1483306,53.3334816 12.3969516,46.4329636 12.3969516,46.4329636 L0.0793802747,47.5877265 L0.894897443,54.1213105 C5.1660327,65.6473555 19.3255855,64.7861397 27.6308123,62.7464183 C40.5225077,59.582152 47.7099324,48.6475183 47.7099324,48.6475183 L47.6838358,48.5654978 C47.7208059,48.5288044 47.757776,48.5029032 47.7969209,48.4662097 C49.7150172,46.5387269 52.0419596,44.9155835 54.4167456,43.5579277 C56.9959545,42.0880332 59.8143819,41.0001817 62.5893149,39.8972212 C67.4432731,37.9740553 72.3429003,36.1717618 77.3621366,34.2637049 C77.7383619,35.2781695 78.0080262,35.8350458 78.1515572,36.4221403 C79.2084675,40.8167147 81.1678834,41.8225456 85.3737773,40.0439949 C86.8721542,39.4115733 88.3118138,38.6431703 89.808016,37.9977981 C95.9450545,35.3472394 102.038599,32.5779668 108.264801,30.149727 C110.967968,29.0920937 113.703756,29.4914042 116.152483,31.5742944 C117.228965,32.489471 118.96656,33.0981498 120.388822,33.0700901 C123.992321,33.0031786 127.769796,33.0873576 131.151474,32.0577839 C142.668751,28.5524848 154.038148,24.5680131 165.48366,20.8166524 C177.605507,16.8429728 189.594697,12.3253676 201.934015,9.18700251 C211.815909,6.67242528 222.137094,5.86732888 232.266904,4.3067801 L232.266904,3.76501281 C229.720316,2.68363668 227.175903,1.60010212 224.629314,0.51656755" id="Fill-49" fill="#FEC22D" mask="url(#mask-6)"></path>
                </g>
                <path d="M154,215.72218 C154,215.72218 202.946909,100.792113 213.599843,30.4425727 C213.599843,30.4425727 215.656128,19.7687596 217.198341,13 L223,13 C223,13 196.184066,146.394461 163.052403,217 L154,215.72218 Z" id="Fill-52" fill="#FEFEFE"></path>
                <path d="M57,207.983657 C57,207.983657 174.897744,103.921732 212,29 C212,29 167.081704,200.7105 149.160515,215.713007 C149.160515,215.713007 91.7108784,221.660824 57,207.983657" id="Fill-54" fill="#FEFEFE"></path>
                <path d="M222,43 C222,43 220.12023,150.065427 212.542477,167.796049 C212.542477,167.796049 206.633699,183.245615 193.03851,183.842098 C179.443321,184.434211 136,188 136,188 C136,188 194.811796,171.956136 222,43" id="Fill-56" fill="#FEFEFE"></path>
                <path d="M206.953583,21 L232,44.6771537 C231.113149,45.5558488 211.834547,62 211.834547,62 C208.685679,60.9330131 196.184368,46.0449747 196.184368,46.0449747 C190.9837,40.3853991 193.718704,36.8944257 193.718704,36.8944257 L206.953583,21" id="Fill-58" fill="#FEC22D"></path>
                <path d="M76.1600785,178.19697 L76.1600785,169.248106 C76.1600785,169.248106 76.3350154,168.507891 76.9988786,168.507891 C77.6649846,168.507891 77.6447996,169.192866 77.6447996,169.192866 L78.0305579,178.19697 L76.1600785,178.19697 Z M80.9035604,179.052083 L80.190356,178.937184 L80.1522288,178.214646 L79.2663302,178.157197 L78.9971965,169.212753 C79.0734511,168.090278 80.5761144,168.070391 80.5761144,168.070391 L80.5761144,166.589962 L73.2691337,166 L73.3252033,167.937816 L73.9038408,167.937816 C74.8301093,167.975379 74.9848612,168.907828 74.9848612,168.907828 L74.7538548,178.272096 L73.7311466,178.272096 L73.7311466,179.147096 L73,179.147096 L73,180 L81,180 L80.9035604,179.052083 Z" id="Fill-60" fill="#FEFEFE"></path>
            </g>
        </g>
    </g>
</svg>